<svg width="304" height="77" viewBox="0 0 304 77" fill="none" xmlns="http://www.w3.org/2000/svg">
<g filter="url(#filter0_dd_131_763)">
<path d="M87.8752 40.8439L86.0002 38.9585V34.3126C86.0251 32.5875 85.425 30.9115 84.3107 29.5942C83.1964 28.277 81.6431 27.4074 79.9377 27.146C78.9479 27.0156 77.9417 27.0979 76.9862 27.3872C76.0307 27.6765 75.148 28.1663 74.3968 28.8239C73.6456 29.4814 73.0432 30.2916 72.63 31.2003C72.2167 32.1091 72.002 33.0956 72.0002 34.0939V38.9585L70.1252 40.8439C69.8897 41.0833 69.73 41.3869 69.666 41.7166C69.6021 42.0463 69.6367 42.3876 69.7657 42.6977C69.8946 43.0078 70.1121 43.273 70.391 43.4602C70.6698 43.6474 70.9977 43.7483 71.3335 43.7501H74.8335V44.1043C74.8822 45.1618 75.348 46.1569 76.1291 46.8715C76.9101 47.5862 77.9425 47.962 79.0002 47.9168C80.0578 47.962 81.0903 47.5862 81.8713 46.8715C82.6523 46.1569 83.1182 45.1618 83.1668 44.1043V43.7501H86.6668C87.0027 43.7483 87.3305 43.6474 87.6094 43.4602C87.8882 43.273 88.1057 43.0078 88.2347 42.6977C88.3636 42.3876 88.3983 42.0463 88.3343 41.7166C88.2704 41.3869 88.1107 41.0833 87.8752 40.8439ZM81.0835 44.1043C81.0257 44.6054 80.7769 45.0648 80.3888 45.3869C80.0007 45.709 79.5033 45.869 79.0002 45.8335C78.4971 45.869 77.9997 45.709 77.6116 45.3869C77.2235 45.0648 76.9746 44.6054 76.9168 44.1043V43.7501H81.0835V44.1043Z" fill="white"/>
<path d="M112.884 26.772H115.62V27.444C115.62 31.404 112.332 34.644 106.62 35.436L105.444 32.94C110.436 32.34 112.884 29.772 112.884 27.444V26.772ZM113.412 26.772H116.148V27.444C116.148 29.772 118.596 32.34 123.564 32.94L122.412 35.436C116.7 34.644 113.412 31.38 113.412 27.444V26.772ZM104.46 36.612H124.548V39.132H104.46V36.612ZM114.468 40.596C119.268 40.596 122.172 42.06 122.172 44.628C122.172 47.22 119.268 48.66 114.468 48.66C109.644 48.66 106.74 47.22 106.74 44.628C106.74 42.06 109.644 40.596 114.468 40.596ZM114.468 42.996C111.492 42.996 109.98 43.524 109.98 44.628C109.98 45.756 111.492 46.26 114.468 46.26C117.444 46.26 118.956 45.756 118.956 44.628C118.956 43.524 117.444 42.996 114.468 42.996ZM131.41 32.172H133.882V33.324C133.882 38.004 131.89 42.732 127.858 44.532L126.13 42.084C129.754 40.428 131.41 36.66 131.41 33.324V32.172ZM132.106 32.172H134.578V33.324C134.578 36.492 136.138 40.044 139.618 41.724L137.914 44.148C134.002 42.348 132.106 37.788 132.106 33.324V32.172ZM126.898 30.036H138.994V32.556H126.898V30.036ZM131.386 26.916H134.578V31.332H131.386V26.916ZM140.746 26.412H143.962V48.636H140.746V26.412ZM143.242 35.028H147.178V37.668H143.242V35.028ZM164.528 26.436H167.552V37.86H164.528V26.436ZM160.04 26.82H163.016V37.764H160.04V26.82ZM157.376 31.068H160.928V33.588H157.376V31.068ZM152.456 38.748H167.552V44.724H155.696V47.412H152.48V42.42H164.384V41.196H152.456V38.748ZM152.48 46.044H168.272V48.492H152.48V46.044ZM149.384 27.636H152.384V30.036H155.216V27.636H158.192V37.164H149.384V27.636ZM152.384 32.388V34.74H155.216V32.388H152.384ZM185.751 36.996H188.943V40.092H185.751V36.996ZM187.383 26.628C192.447 26.628 195.423 27.948 195.423 30.396C195.423 32.844 192.447 34.188 187.383 34.188C182.295 34.188 179.343 32.844 179.343 30.396C179.343 27.948 182.295 26.628 187.383 26.628ZM187.383 28.956C184.167 28.956 182.655 29.412 182.655 30.396C182.655 31.428 184.167 31.86 187.383 31.86C190.599 31.86 192.111 31.428 192.111 30.396C192.111 29.412 190.599 28.956 187.383 28.956ZM177.327 35.148H197.415V37.668H177.327V35.148ZM179.631 39.108H194.991V44.82H182.799V46.788H179.655V42.612H191.847V41.484H179.631V39.108ZM179.655 46.092H195.567V48.492H179.655V46.092ZM214.717 26.388H217.909V48.684H214.717V26.388ZM200.605 40.908H202.573C206.509 40.908 209.653 40.764 213.181 40.164L213.493 42.732C209.893 43.38 206.629 43.5 202.573 43.5H200.605V40.908ZM200.581 28.284H211.069V36.876H203.845V41.868H200.605V34.356H207.805V30.828H200.581V28.284ZM236.795 26.412H240.011V48.636H236.795V26.412ZM230.243 28.716H233.411C233.411 35.508 231.107 41.076 223.211 44.892L221.555 42.348C227.939 39.276 230.243 35.244 230.243 29.292V28.716ZM222.731 28.716H231.755V31.236H222.731V28.716Z" fill="white"/>
</g>
<defs>
<filter id="filter0_dd_131_763" x="-21" y="-14" width="346" height="117" filterUnits="userSpaceOnUse" color-interpolation-filters="sRGB">
<feFlood flood-opacity="0" result="BackgroundImageFix"/>
<feColorMatrix in="SourceAlpha" type="matrix" values="0 0 0 0 0 0 0 0 0 0 0 0 0 0 0 0 0 0 127 0" result="hardAlpha"/>
<feOffset dy="7"/>
<feGaussianBlur stdDeviation="10.5"/>
<feComposite in2="hardAlpha" operator="out"/>
<feColorMatrix type="matrix" values="0 0 0 0 0.145098 0 0 0 0 0.172549 0 0 0 0 0.380392 0 0 0 0.2 0"/>
<feBlend mode="normal" in2="BackgroundImageFix" result="effect1_dropShadow_131_763"/>
<feColorMatrix in="SourceAlpha" type="matrix" values="0 0 0 0 0 0 0 0 0 0 0 0 0 0 0 0 0 0 127 0" result="hardAlpha"/>
<feOffset dy="3"/>
<feGaussianBlur stdDeviation="4"/>
<feComposite in2="hardAlpha" operator="out"/>
<feColorMatrix type="matrix" values="0 0 0 0 0.533333 0 0 0 0 0.564706 0 0 0 0 0.760784 0 0 0 0.25 0"/>
<feBlend mode="normal" in2="effect1_dropShadow_131_763" result="effect2_dropShadow_131_763"/>
<feBlend mode="normal" in="SourceGraphic" in2="effect2_dropShadow_131_763" result="shape"/>
</filter>
</defs>
</svg>
