<svg width="167" height="96" viewBox="0 0 167 96" fill="none" xmlns="http://www.w3.org/2000/svg">
<path d="M2.42188 43V11H15.7656C18.1615 11 20.1667 11.3385 21.7813 12.0156C23.4063 12.6927 24.625 13.6406 25.4375 14.8594C26.2604 16.0781 26.6719 17.4896 26.6719 19.0937C26.6719 20.3125 26.4167 21.401 25.9063 22.3594C25.3958 23.3073 24.6927 24.0937 23.7969 24.7187C22.901 25.3437 21.8646 25.7812 20.6875 26.0313V26.3437C21.9792 26.4062 23.1719 26.7552 24.2656 27.3906C25.3698 28.026 26.2552 28.9115 26.9219 30.0469C27.5885 31.1719 27.9219 32.5052 27.9219 34.0469C27.9219 35.7656 27.4844 37.3021 26.6094 38.6562C25.7344 40 24.4688 41.0625 22.8125 41.8437C21.1563 42.6146 19.1458 43 16.7813 43H2.42188ZM10.1563 36.7656H14.9375C16.6146 36.7656 17.849 36.4479 18.6406 35.8125C19.4427 35.1771 19.8438 34.2917 19.8438 33.1562C19.8438 32.3333 19.651 31.625 19.2656 31.0312C18.8802 30.4271 18.3333 29.9635 17.625 29.6406C16.9167 29.3073 16.0677 29.1406 15.0781 29.1406H10.1563V36.7656ZM10.1563 24.1562H14.4375C15.2813 24.1562 16.0313 24.0156 16.6875 23.7344C17.3438 23.4531 17.8542 23.0469 18.2188 22.5156C18.5938 21.9844 18.7813 21.3437 18.7813 20.5937C18.7813 19.5208 18.401 18.6771 17.6406 18.0625C16.8802 17.4479 15.8542 17.1406 14.5625 17.1406H10.1563V24.1562ZM51 11H58.7188V31.6406C58.7188 34.026 58.151 36.1042 57.0156 37.875C55.8802 39.6354 54.2969 41 52.2656 41.9688C50.2344 42.9271 47.875 43.4063 45.1875 43.4063C42.4688 43.4063 40.0938 42.9271 38.0625 41.9688C36.0313 41 34.4531 39.6354 33.3281 37.875C32.2031 36.1042 31.6406 34.026 31.6406 31.6406V11H39.375V30.9688C39.375 32.0729 39.6146 33.0573 40.0938 33.9219C40.5833 34.7865 41.2656 35.4635 42.1406 35.9531C43.0156 36.4427 44.0313 36.6875 45.1875 36.6875C46.3438 36.6875 47.3542 36.4427 48.2188 35.9531C49.0938 35.4635 49.776 34.7865 50.2656 33.9219C50.7552 33.0573 51 32.0729 51 30.9688V11ZM80.8633 20.5937C80.7591 19.4479 80.2956 18.5573 79.4727 17.9219C78.6602 17.276 77.4987 16.9531 75.9883 16.9531C74.9883 16.9531 74.1549 17.0833 73.4883 17.3437C72.8216 17.6042 72.3216 17.9635 71.9883 18.4219C71.6549 18.8698 71.4831 19.3854 71.4727 19.9688C71.4518 20.4479 71.5456 20.8698 71.7539 21.2344C71.9727 21.599 72.2852 21.9219 72.6914 22.2031C73.1081 22.474 73.6081 22.7135 74.1914 22.9219C74.7747 23.1302 75.431 23.3125 76.1602 23.4687L78.9102 24.0938C80.4935 24.4375 81.8893 24.8958 83.0977 25.4688C84.3164 26.0417 85.3372 26.724 86.1602 27.5156C86.9935 28.3073 87.6237 29.2187 88.0508 30.25C88.4779 31.2812 88.6966 32.4375 88.707 33.7188C88.6966 35.7396 88.1862 37.474 87.1758 38.9219C86.1654 40.3698 84.7122 41.4792 82.8164 42.25C80.931 43.0208 78.6549 43.4063 75.9883 43.4063C73.3112 43.4063 70.9779 43.0052 68.9883 42.2031C66.9987 41.401 65.4518 40.1823 64.3477 38.5469C63.2435 36.9115 62.6758 34.8437 62.6445 32.3438H70.0508C70.1133 33.375 70.3893 34.2344 70.8789 34.9219C71.3685 35.6094 72.0404 36.1302 72.8945 36.4844C73.7591 36.8385 74.7591 37.0156 75.8945 37.0156C76.9362 37.0156 77.8216 36.875 78.5508 36.5937C79.2904 36.3125 79.8581 35.9219 80.2539 35.4219C80.6497 34.9219 80.8529 34.349 80.8633 33.7031C80.8529 33.099 80.6654 32.5833 80.3008 32.1562C79.9362 31.7187 79.3737 31.3437 78.6133 31.0312C77.8633 30.7083 76.9049 30.4115 75.7383 30.1406L72.3945 29.3594C69.6237 28.724 67.4414 27.6979 65.8477 26.2812C64.2539 24.8542 63.4622 22.9271 63.4727 20.5C63.4622 18.5208 63.9935 16.7865 65.0664 15.2969C66.1393 13.8073 67.6237 12.6458 69.5195 11.8125C71.4154 10.9792 73.5768 10.5625 76.0039 10.5625C78.4831 10.5625 80.6341 10.9844 82.457 11.8281C84.2904 12.6615 85.7122 13.8333 86.7227 15.3438C87.7331 16.8542 88.2487 18.6042 88.2695 20.5937H80.8633ZM1.375 70.2812V64H28.4219V70.2812H18.7188V96H11.0938V70.2812H1.375ZM35.125 96H26.8125L37.6094 64H47.9063L58.7031 96H50.3906L42.875 72.0625H42.625L35.125 96ZM34.0156 83.4062H51.3906V89.2812H34.0156V83.4062ZM62.1484 64H71.7266L79.8516 83.8125H80.2266L88.3516 64H97.9297V96H90.3984V76.3437H90.1328L82.4453 95.7969H77.6328L69.9453 76.2344H69.6797V96H62.1484V64ZM118.113 77.0625V82.9375H103.301V77.0625H118.113ZM123.508 96V64H145.82V70.2812H131.242V76.8437H144.68V83.1406H131.242V89.7187H145.82V96H123.508Z" fill="black"/>
<ellipse cx="122.74" cy="35.9108" rx="8.03847" ry="13.6067" transform="rotate(165 122.74 35.9108)" fill="url(#paint0_linear_14_18)"/>
<ellipse cx="8.13282" cy="13.4501" rx="8.13282" ry="13.4501" transform="matrix(0.252356 -0.967634 0.96416 0.26532 95.6598 26.5997)" fill="url(#paint1_linear_14_18)"/>
<ellipse cx="8.13282" cy="13.4501" rx="8.13282" ry="13.4501" transform="matrix(0.702364 0.711818 -0.702327 0.711854 132.708 2.73773)" fill="url(#paint2_linear_14_18)"/>
<defs>
<linearGradient id="paint0_linear_14_18" x1="122.74" y1="22.3041" x2="122.74" y2="49.5175" gradientUnits="userSpaceOnUse">
<stop stop-color="#1F85EA"/>
<stop offset="1" stop-color="white"/>
</linearGradient>
<linearGradient id="paint1_linear_14_18" x1="8.13282" y1="0" x2="8.13282" y2="26.9002" gradientUnits="userSpaceOnUse">
<stop stop-color="#1BC866"/>
<stop offset="1" stop-color="#D9D9D9" stop-opacity="0"/>
</linearGradient>
<linearGradient id="paint2_linear_14_18" x1="8.13282" y1="0" x2="8.13282" y2="26.9002" gradientUnits="userSpaceOnUse">
<stop stop-color="#FF4123"/>
<stop offset="1" stop-color="#D9D9D9" stop-opacity="0"/>
</linearGradient>
</defs>
</svg>
