<svg width="276" height="43" viewBox="0 0 276 43" fill="none" xmlns="http://www.w3.org/2000/svg">
<path d="M13.7 0.239999H16.34V18.82H13.7V0.239999ZM9.5 6.76H14.46V8.9H9.5V6.76ZM1.48 1.7H4.12V6.18H7.76V1.7H10.38V14.46H1.48V1.7ZM4.12 8.24V12.32H7.76V8.24H4.12ZM26.0784 1.32H28.3984V2.66C28.3984 6.68 25.5384 10.24 20.7384 11.18L19.5984 8.98C23.7784 8.26 26.0784 5.32 26.0784 2.66V1.32ZM26.6184 1.32H28.9184V2.66C28.9184 5.38 31.1984 8.26 35.3984 8.98L34.2584 11.18C29.4584 10.24 26.6184 6.74 26.6184 2.66V1.32ZM19.2184 14.36H35.9784V16.52H19.2184V14.36ZM42.5738 8.04H44.1138C47.7138 8.04 49.8338 7.98 52.2538 7.54L52.5338 9.62C50.0538 10.06 47.8138 10.14 44.1138 10.14H42.5738V8.04ZM42.5738 1.18H51.2738V3.28H45.2338V9H42.5738V1.18ZM44.4138 4.62H50.8738V6.68H44.4138V4.62ZM53.8138 0.26H56.4738V10.52H53.8138V0.26ZM55.7338 4.24H58.9338V6.42H55.7338V4.24ZM44.3738 11.28H47.0138V12.86H53.8338V11.28H56.4738V18.58H44.3738V11.28ZM47.0138 14.9V16.46H53.8338V14.9H47.0138ZM67.3122 0.559999H69.5922V1.12C69.5922 4.42 66.8522 7.12 62.0922 7.78L61.1122 5.7C65.2722 5.2 67.3122 3.06 67.3122 1.12V0.559999ZM67.7522 0.559999H70.0322V1.12C70.0322 3.06 72.0722 5.2 76.2122 5.7L75.2522 7.78C70.4922 7.12 67.7522 4.4 67.7522 1.12V0.559999ZM60.2922 8.76H77.0322V10.86H60.2922V8.76ZM68.6322 12.08C72.6322 12.08 75.0522 13.3 75.0522 15.44C75.0522 17.6 72.6322 18.8 68.6322 18.8C64.6122 18.8 62.1922 17.6 62.1922 15.44C62.1922 13.3 64.6122 12.08 68.6322 12.08ZM68.6322 14.08C66.1522 14.08 64.8922 14.52 64.8922 15.44C64.8922 16.38 66.1522 16.8 68.6322 16.8C71.1122 16.8 72.3722 16.38 72.3722 15.44C72.3722 14.52 71.1122 14.08 68.6322 14.08ZM90.5706 0.26H93.2106V18.78H90.5706V0.26ZM92.6106 7.48H95.8906V9.7H92.6106V7.48ZM78.6106 3H89.3906V5.12H78.6106V3ZM84.0306 6.16C86.7306 6.16 88.7306 8 88.7306 10.58C88.7306 13.16 86.7306 15 84.0306 15C81.3306 15 79.3306 13.16 79.3306 10.58C79.3306 8 81.3306 6.16 84.0306 6.16ZM84.0306 8.32C82.7706 8.32 81.8706 9.16 81.8706 10.58C81.8706 12 82.7706 12.84 84.0306 12.84C85.2906 12.84 86.1906 12 86.1906 10.58C86.1906 9.16 85.2906 8.32 84.0306 8.32ZM82.6906 0.559999H85.3506V3.8H82.6906V0.559999ZM109.849 0.26H112.529V18.78H109.849V0.26ZM104.389 2.18H107.029C107.029 7.84 105.109 12.48 98.5291 15.66L97.1491 13.54C102.469 10.98 104.389 7.62 104.389 2.66V2.18ZM98.1291 2.18H105.649V4.28H98.1291V2.18ZM129.704 5.04H134.024V7.18H129.704V5.04ZM132.624 0.279999H135.284V13.78H132.624V0.279999ZM123.064 16.34H135.704V18.46H123.064V16.34ZM123.064 12.64H125.724V17.6H123.064V12.64ZM124.064 2.7H126.224V3.86C126.224 7.34 124.584 10.56 121.024 11.74L119.684 9.62C122.744 8.62 124.064 6.2 124.064 3.86V2.7ZM124.624 2.7H126.764V3.86C126.764 6.02 128.024 8.32 130.944 9.3L129.644 11.38C126.204 10.24 124.624 7.16 124.624 3.86V2.7ZM120.404 1.52H130.364V3.62H120.404V1.52ZM145.583 7.08H148.623V9.22H145.583V7.08ZM151.563 0.26H154.103V18.78H151.563V0.26ZM147.783 0.54H150.283V17.94H147.783V0.54ZM142.343 1.56C144.803 1.56 146.383 4.1 146.383 8.28C146.383 12.48 144.803 15.02 142.343 15.02C139.903 15.02 138.343 12.48 138.343 8.28C138.343 4.1 139.903 1.56 142.343 1.56ZM142.343 4.06C141.343 4.06 140.763 5.46 140.763 8.28C140.763 11.12 141.343 12.5 142.343 12.5C143.383 12.5 143.963 11.12 143.963 8.28C143.963 5.46 143.383 4.06 142.343 4.06ZM160.426 15.0114L160.362 15.7997C160.305 16.4531 160.189 17.09 160.014 17.7102C159.844 18.3352 159.661 18.8963 159.467 19.3935C159.273 19.8906 159.119 20.2765 159.006 20.5511H156.818C156.894 20.2765 156.996 19.8906 157.124 19.3935C157.256 18.8963 157.379 18.3352 157.493 17.7102C157.607 17.0852 157.67 16.4508 157.685 15.8068L157.699 15.0114H160.426ZM7.82 24.56H10.1V25.12C10.1 28.42 7.36 31.12 2.6 31.78L1.62 29.7C5.78 29.2 7.82 27.06 7.82 25.12V24.56ZM8.26 24.56H10.54V25.12C10.54 27.06 12.58 29.2 16.72 29.7L15.76 31.78C11 31.12 8.26 28.4 8.26 25.12V24.56ZM0.8 32.76H17.54V34.86H0.8V32.76ZM9.14 36.08C13.14 36.08 15.56 37.3 15.56 39.44C15.56 41.6 13.14 42.8 9.14 42.8C5.12 42.8 2.7 41.6 2.7 39.44C2.7 37.3 5.12 36.08 9.14 36.08ZM9.14 38.08C6.66 38.08 5.4 38.52 5.4 39.44C5.4 40.38 6.66 40.8 9.14 40.8C11.62 40.8 12.88 40.38 12.88 39.44C12.88 38.52 11.62 38.08 9.14 38.08ZM23.2584 29.06H25.3184V30.02C25.3184 33.92 23.6584 37.86 20.2984 39.36L18.8584 37.32C21.8784 35.94 23.2584 32.8 23.2584 30.02V29.06ZM23.8384 29.06H25.8984V30.02C25.8984 32.66 27.1984 35.62 30.0984 37.02L28.6784 39.04C25.4184 37.54 23.8384 33.74 23.8384 30.02V29.06ZM19.4984 27.28H29.5784V29.38H19.4984V27.28ZM23.2384 24.68H25.8984V28.36H23.2384V24.68ZM31.0384 24.26H33.7184V42.78H31.0384V24.26ZM33.1184 31.44H36.3984V33.64H33.1184V31.44ZM50.8569 24.28H53.3769V33.8H50.8569V24.28ZM47.1169 24.6H49.5969V33.72H47.1169V24.6ZM44.8969 28.14H47.8569V30.24H44.8969V28.14ZM40.7969 34.54H53.3769V39.52H43.4969V41.76H40.8169V37.6H50.7369V36.58H40.7969V34.54ZM40.8169 40.62H53.9769V42.66H40.8169V40.62ZM38.2369 25.28H40.7369V27.28H43.0969V25.28H45.5769V33.22H38.2369V25.28ZM40.7369 29.24V31.2H43.0969V29.24H40.7369ZM64.3753 24.52C68.5953 24.52 71.0753 25.64 71.0753 27.68C71.0753 29.72 68.5953 30.84 64.3753 30.84C60.1353 30.84 57.6753 29.72 57.6753 27.68C57.6753 25.64 60.1353 24.52 64.3753 24.52ZM64.3753 26.46C61.6953 26.46 60.4353 26.86 60.4353 27.68C60.4353 28.54 61.6953 28.9 64.3753 28.9C67.0553 28.9 68.3153 28.54 68.3153 27.68C68.3153 26.86 67.0553 26.46 64.3753 26.46ZM55.9953 31.7H72.7353V33.8H55.9953V31.7ZM57.9153 34.84H70.7153V39.6H60.5553V41.24H57.9353V37.76H68.0953V36.82H57.9153V34.84ZM57.9353 40.66H71.1953V42.66H57.9353V40.66ZM85.7106 33.08H88.3706V35.66H85.7106V33.08ZM87.0706 24.44C91.2906 24.44 93.7706 25.54 93.7706 27.58C93.7706 29.62 91.2906 30.74 87.0706 30.74C82.8306 30.74 80.3706 29.62 80.3706 27.58C80.3706 25.54 82.8306 24.44 87.0706 24.44ZM87.0706 26.38C84.3906 26.38 83.1306 26.76 83.1306 27.58C83.1306 28.44 84.3906 28.8 87.0706 28.8C89.7506 28.8 91.0106 28.44 91.0106 27.58C91.0106 26.76 89.7506 26.38 87.0706 26.38ZM78.6906 31.54H95.4306V33.64H78.6906V31.54ZM80.6106 34.84H93.4106V39.6H83.2506V41.24H80.6306V37.76H90.7906V36.82H80.6106V34.84ZM80.6306 40.66H93.8906V42.66H80.6306V40.66ZM109.849 24.24H112.509V42.82H109.849V24.24ZM98.0891 36.34H99.7291C103.009 36.34 105.629 36.22 108.569 35.72L108.829 37.86C105.829 38.4 103.109 38.5 99.7291 38.5H98.0891V36.34ZM98.0691 25.82H106.809V32.98H100.789V37.14H98.0891V30.88H104.089V27.94H98.0691V25.82ZM124.428 27.16H129.088V29.28H124.428V27.16ZM124.428 31.14H129.168V33.26H124.428V31.14ZM116.248 25.74H125.008V34.8H116.248V25.74ZM122.388 27.84H118.868V32.72H122.388V27.84ZM128.328 24.28H130.988V37.76H128.328V24.28ZM118.728 40.34H131.388V42.46H118.728V40.34ZM118.728 36.48H121.408V41.44H118.728V36.48ZM151.083 24.24H153.723V42.82H151.083V24.24ZM146.883 30.76H151.843V32.9H146.883V30.76ZM138.863 25.7H141.503V30.18H145.143V25.7H147.763V38.46H138.863V25.7ZM141.503 32.24V36.32H145.143V32.24H141.503ZM163.461 25.32H165.781V26.66C165.781 30.68 162.921 34.24 158.121 35.18L156.981 32.98C161.161 32.26 163.461 29.32 163.461 26.66V25.32ZM164.001 25.32H166.301V26.66C166.301 29.38 168.581 32.26 172.781 32.98L171.641 35.18C166.841 34.24 164.001 30.74 164.001 26.66V25.32ZM156.601 38.36H173.361V40.52H156.601V38.36ZM186.82 24.24H189.5V42.76H186.82V24.24ZM188.8 31.32H192.06V33.5H188.8V31.32ZM181.96 26.16H184.56C184.56 31.72 182.44 36.48 176.28 39.58L174.8 37.56C179.66 35.04 181.96 31.64 181.96 26.62V26.16ZM175.82 26.16H183.32V28.3H175.82V26.16ZM207.715 28.74H211.235V30.9H207.715V28.74ZM210.515 24.26H213.175V35.26H210.515V24.26ZM206.895 35.66C210.815 35.66 213.235 37 213.235 39.24C213.235 41.5 210.815 42.8 206.895 42.8C202.975 42.8 200.555 41.5 200.555 39.24C200.555 37 202.975 35.66 206.895 35.66ZM206.895 37.68C204.495 37.68 203.215 38.18 203.215 39.24C203.215 40.28 204.495 40.78 206.895 40.78C209.315 40.78 210.595 40.28 210.595 39.24C210.595 38.18 209.315 37.68 206.895 37.68ZM201.955 26.12H204.115V27.28C204.115 30.82 202.475 34.06 198.935 35.26L197.575 33.16C200.635 32.12 201.955 29.66 201.955 27.28V26.12ZM202.515 26.12H204.655V27.28C204.655 29.46 205.915 31.72 208.835 32.7L207.535 34.8C204.095 33.66 202.515 30.58 202.515 27.28V26.12ZM198.295 25.38H208.255V27.5H198.295V25.38ZM220.133 29.06H222.193V30.02C222.193 33.92 220.533 37.86 217.173 39.36L215.733 37.32C218.753 35.94 220.133 32.8 220.133 30.02V29.06ZM220.713 29.06H222.773V30.02C222.773 32.66 224.073 35.62 226.973 37.02L225.553 39.04C222.293 37.54 220.713 33.74 220.713 30.02V29.06ZM216.373 27.28H226.453V29.38H216.373V27.28ZM220.113 24.68H222.773V28.36H220.113V24.68ZM227.913 24.26H230.593V42.78H227.913V24.26ZM229.993 31.44H233.273V33.64H229.993V31.44ZM234.452 27.04H243.312V29.16H234.452V27.04ZM238.912 29.98C241.272 29.98 242.972 31.8 242.972 34.4C242.972 36.98 241.272 38.8 238.912 38.8C236.572 38.8 234.852 36.98 234.852 34.4C234.852 31.8 236.572 29.98 238.912 29.98ZM238.912 32.2C237.912 32.2 237.212 33 237.212 34.4C237.212 35.8 237.912 36.58 238.912 36.58C239.912 36.58 240.632 35.8 240.632 34.4C240.632 33 239.912 32.2 238.912 32.2ZM247.852 24.26H250.392V42.78H247.852V24.26ZM245.632 31.78H248.692V33.92H245.632V31.78ZM243.972 24.6H246.452V42H243.972V24.6ZM237.612 24.76H240.232V28.38H237.612V24.76ZM256.57 33.66H259.21V38.86H256.57V33.66ZM263.29 33.66H265.95V38.86H263.29V33.66ZM252.89 38.48H269.65V40.64H252.89V38.48ZM261.25 25.16C265.23 25.16 268.17 27.12 268.17 30.14C268.17 33.16 265.23 35.1 261.25 35.1C257.25 35.1 254.33 33.16 254.33 30.14C254.33 27.12 257.25 25.16 261.25 25.16ZM261.25 27.24C258.67 27.24 256.95 28.3 256.95 30.14C256.95 31.96 258.67 33.04 261.25 33.04C263.83 33.04 265.55 31.96 265.55 30.14C265.55 28.3 263.83 27.24 261.25 27.24ZM273.523 41.206C273.011 41.206 272.573 41.026 272.209 40.6662C271.849 40.3063 271.671 39.8707 271.676 39.3594C271.671 38.8575 271.849 38.429 272.209 38.0739C272.573 37.714 273.011 37.5341 273.523 37.5341C274.006 37.5341 274.432 37.714 274.801 38.0739C275.175 38.429 275.365 38.8575 275.369 39.3594C275.365 39.7003 275.275 40.0104 275.099 40.2898C274.929 40.5691 274.704 40.7917 274.425 40.9574C274.15 41.1231 273.849 41.206 273.523 41.206Z" fill="black"/>
</svg>
