<svg width="106" height="34" viewBox="0 0 106 34" fill="none" xmlns="http://www.w3.org/2000/svg">
<rect width="105.788" height="33.3763" rx="16.6881" fill="#58D78F"/>
<path d="M17.2063 11.133H24.8243V12.524H17.2063V11.133ZM16.1533 19.31H27.0343V20.714H16.1533V19.31ZM18.4283 15.514H20.1443V19.752H18.4283V15.514ZM24.3173 11.133H26.0593V12.316C26.0593 13.772 26.0593 15.436 25.6303 17.88L23.9143 17.711C24.3173 15.423 24.3173 13.733 24.3173 12.316V11.133ZM21.4053 15.514H23.1083V19.752H21.4053V15.514ZM28.0863 16.32H38.9803V17.672H28.0863V16.32ZM32.6623 15.033H34.3913V16.814H32.6623V15.033ZM29.4383 14.279H37.8233V15.592H29.4383V14.279ZM29.4383 10.418H37.7323V11.731H31.1543V15.02H29.4383V10.418ZM30.6733 12.368H37.4593V13.629H30.6733V12.368ZM33.5203 18.205C36.1593 18.205 37.6933 18.907 37.6933 20.181C37.6933 21.468 36.1593 22.157 33.5203 22.157C30.8683 22.157 29.3343 21.468 29.3343 20.181C29.3343 18.907 30.8683 18.205 33.5203 18.205ZM33.5203 19.479C31.8433 19.479 31.0763 19.687 31.0763 20.181C31.0763 20.688 31.8433 20.896 33.5203 20.896C35.1843 20.896 35.9513 20.688 35.9513 20.181C35.9513 19.687 35.1843 19.479 33.5203 19.479ZM49.0023 11.679H51.0823V13.096H49.0023V11.679ZM49.0023 14.292H51.0823V15.709H49.0023V14.292ZM47.8063 10.119H49.5353V17.217H47.8063V10.119ZM41.5013 17.711H49.5353V22.157H47.8063V19.089H41.5013V17.711ZM43.4123 10.769C45.2713 10.769 46.6883 12.004 46.6883 13.72C46.6883 15.436 45.2713 16.658 43.4123 16.658C41.5533 16.658 40.1363 15.436 40.1363 13.72C40.1363 12.004 41.5533 10.769 43.4123 10.769ZM43.4123 12.238C42.5023 12.238 41.8263 12.771 41.8263 13.72C41.8263 14.669 42.5023 15.215 43.4123 15.215C44.3223 15.215 44.9983 14.669 44.9983 13.72C44.9983 12.771 44.3223 12.238 43.4123 12.238ZM54.7213 12.017H56.0863V13.369C56.0863 16.086 54.9423 18.855 52.7323 19.895L51.7573 18.53C53.7463 17.594 54.7213 15.345 54.7213 13.369V12.017ZM55.0853 12.017H56.4503V13.369C56.4503 15.189 57.3863 17.321 59.3623 18.231L58.4133 19.596C56.2033 18.569 55.0853 15.93 55.0853 13.369V12.017ZM52.2253 11.276H58.8293V12.693H52.2253V11.276ZM59.7133 10.119H61.4553V22.157H59.7133V10.119ZM61.0653 14.708H63.1973V16.138H61.0653V14.708ZM69.2262 17.724H70.9942V22.157H69.2262V17.724ZM73.3862 17.724H75.1542V22.157H73.3862V17.724ZM66.7692 16.814H77.6762V18.205H66.7692V16.814ZM72.1902 10.522C74.7642 10.522 76.5452 11.575 76.5452 13.226C76.5452 14.851 74.7642 15.904 72.1902 15.904C69.6292 15.904 67.8482 14.851 67.8482 13.226C67.8482 11.575 69.6292 10.522 72.1902 10.522ZM72.1902 11.9C70.6172 11.9 69.6162 12.368 69.6162 13.226C69.6162 14.071 70.6172 14.539 72.1902 14.539C73.7762 14.539 74.7642 14.071 74.7642 13.226C74.7642 12.368 73.7762 11.9 72.1902 11.9ZM85.5272 12.758H87.7372V14.136H85.5272V12.758ZM85.5012 15.163H87.6982V16.541H85.5012V15.163ZM78.7672 11.198H85.3712V12.563H78.7672V11.198ZM82.1472 12.979C83.7982 12.979 84.9682 13.889 84.9682 15.228C84.9682 16.567 83.7982 17.477 82.1472 17.477C80.4962 17.477 79.3262 16.567 79.3262 15.228C79.3262 13.889 80.4962 12.979 82.1472 12.979ZM82.1472 14.266C81.4192 14.266 80.9382 14.591 80.9382 15.228C80.9382 15.865 81.4192 16.19 82.1472 16.19C82.8622 16.19 83.3692 15.865 83.3692 15.228C83.3692 14.591 82.8622 14.266 82.1472 14.266ZM81.2892 10.015H83.0182V12.147H81.2892V10.015ZM87.0742 10.119H88.8032V17.789H87.0742V10.119ZM84.7342 17.932C87.2692 17.932 88.8552 18.725 88.8552 20.051C88.8552 21.377 87.2692 22.157 84.7342 22.157C82.1862 22.157 80.6132 21.377 80.6132 20.051C80.6132 18.725 82.1862 17.932 84.7342 17.932ZM84.7342 19.258C83.2522 19.258 82.4332 19.492 82.4332 20.051C82.4332 20.597 83.2522 20.857 84.7342 20.857C86.2162 20.857 87.0222 20.597 87.0222 20.051C87.0222 19.492 86.2162 19.258 84.7342 19.258Z" fill="white"/>
</svg>
