<svg width="321" height="89" viewBox="0 0 321 89" fill="none" xmlns="http://www.w3.org/2000/svg">
<g filter="url(#filter0_dd_14_81)">
<rect x="21" y="14" width="279" height="47" rx="23.5" fill="white"/>
<path d="M108.85 32.692H112.412V34.07H108.85V32.692ZM108.85 35.357H112.412V36.748H108.85V35.357ZM106.848 31.756C108.642 31.756 110.02 33.004 110.02 34.707C110.02 36.41 108.642 37.658 106.848 37.658C105.041 37.658 103.663 36.41 103.663 34.707C103.663 33.004 105.041 31.756 106.848 31.756ZM106.848 33.225C105.964 33.225 105.314 33.758 105.314 34.707C105.314 35.643 105.964 36.202 106.848 36.202C107.732 36.202 108.382 35.643 108.382 34.707C108.382 33.758 107.732 33.225 106.848 33.225ZM111.866 31.119H113.595V38.165H111.866V31.119ZM109.513 38.412C112.048 38.412 113.634 39.296 113.634 40.791C113.634 42.286 112.048 43.157 109.513 43.157C106.978 43.157 105.392 42.286 105.392 40.791C105.392 39.296 106.978 38.412 109.513 38.412ZM109.513 39.751C107.94 39.751 107.095 40.089 107.095 40.791C107.095 41.493 107.94 41.831 109.513 41.831C111.099 41.831 111.931 41.493 111.931 40.791C111.931 40.089 111.099 39.751 109.513 39.751ZM117.936 38.724H119.704V43.157H117.936V38.724ZM122.096 38.724H123.864V43.157H122.096V38.724ZM115.479 37.814H126.386V39.205H115.479V37.814ZM120.9 31.522C123.474 31.522 125.255 32.575 125.255 34.226C125.255 35.851 123.474 36.904 120.9 36.904C118.339 36.904 116.558 35.851 116.558 34.226C116.558 32.575 118.339 31.522 120.9 31.522ZM120.9 32.9C119.327 32.9 118.326 33.368 118.326 34.226C118.326 35.071 119.327 35.539 120.9 35.539C122.486 35.539 123.474 35.071 123.474 34.226C123.474 33.368 122.486 32.9 120.9 32.9ZM130.662 31.951C132.495 31.951 133.821 33.615 133.821 36.241C133.821 38.893 132.495 40.557 130.662 40.557C128.829 40.557 127.503 38.893 127.503 36.241C127.503 33.615 128.829 31.951 130.662 31.951ZM130.662 33.524C129.765 33.524 129.167 34.473 129.167 36.241C129.167 38.035 129.765 38.997 130.662 38.997C131.559 38.997 132.17 38.035 132.17 36.241C132.17 34.473 131.559 33.524 130.662 33.524ZM135.134 31.119H136.876V43.157H135.134V31.119ZM136.486 35.656H138.618V37.086H136.486V35.656ZM139.397 36.514H150.304V37.775H139.397V36.514ZM140.619 38.373H149.004V41.233H142.361V42.26H140.645V40.141H147.301V39.543H140.619V38.373ZM140.645 41.896H149.342V43.066H140.645V41.896ZM140.736 31.327H148.978V34.161H142.465V35.149H140.749V33.082H147.275V32.484H140.736V31.327ZM140.749 34.785H149.199V35.955H140.749V34.785ZM154.962 36.774H165.856V38.152H154.962V36.774ZM159.551 34.967H161.267V37.307H159.551V34.967ZM156.275 34.421H164.621V35.786H156.275V34.421ZM156.275 31.639H164.556V32.991H157.991V35.292H156.275V31.639ZM160.37 38.75C162.97 38.75 164.543 39.543 164.543 40.96C164.543 42.377 162.97 43.17 160.37 43.17C157.77 43.17 156.184 42.377 156.184 40.96C156.184 39.543 157.77 38.75 160.37 38.75ZM160.37 40.05C158.758 40.05 157.939 40.349 157.939 40.96C157.939 41.584 158.758 41.857 160.37 41.857C161.982 41.857 162.801 41.584 162.801 40.96C162.801 40.349 161.982 40.05 160.37 40.05ZM174.656 31.132H176.385V39.985H174.656V31.132ZM175.891 34.512H177.984V35.929H175.891V34.512ZM168.624 41.571H176.814V42.949H168.624V41.571ZM168.624 39.088H170.353V41.87H168.624V39.088ZM167.259 31.977H168.975V33.706H171.328V31.977H173.044V38.087H167.259V31.977ZM168.975 35.019V36.735H171.328V35.019H168.975ZM186.615 31.132H188.344V40.128H186.615V31.132ZM187.85 34.798H189.943V36.215H187.85V34.798ZM178.867 32.38H185.952V33.732H178.867V32.38ZM182.416 34.161C184.145 34.161 185.367 35.11 185.367 36.488C185.367 37.866 184.145 38.802 182.416 38.802C180.674 38.802 179.452 37.866 179.452 36.488C179.452 35.11 180.674 34.161 182.416 34.161ZM182.416 35.474C181.649 35.474 181.116 35.838 181.116 36.488C181.116 37.138 181.649 37.489 182.416 37.489C183.183 37.489 183.716 37.138 183.716 36.488C183.716 35.838 183.183 35.474 182.416 35.474ZM181.545 31.106H183.274V33.043H181.545V31.106ZM180.583 41.571H188.773V42.949H180.583V41.571ZM180.583 39.452H182.312V42.169H180.583V39.452ZM197.122 32.042H198.526V33.797C198.526 36.774 197.486 39.569 195.211 40.687L194.171 39.296C196.199 38.347 197.122 36.033 197.122 33.797V32.042ZM197.473 32.042H198.851V33.797C198.851 35.955 199.709 38.152 201.633 39.088L200.593 40.466C198.422 39.361 197.473 36.683 197.473 33.797V32.042ZM202.114 31.119H203.856V43.157H202.114V31.119ZM203.466 35.747H205.598V37.19H203.466V35.747ZM214.125 31.132H215.854V38.269H214.125V31.132ZM215.36 33.953H217.453V35.383H215.36V33.953ZM208.015 38.789H215.854V43.027H208.015V38.789ZM214.164 40.141H209.718V41.662H214.164V40.141ZM206.806 36.449H207.82C210.186 36.449 211.642 36.41 213.306 36.098L213.462 37.463C211.772 37.788 210.251 37.853 207.82 37.853H206.806V36.449ZM206.793 31.717H212.292V35.383H208.522V37.216H206.806V34.096H210.589V33.095H206.793V31.717Z" fill="#1BC866"/>
</g>
<defs>
<filter id="filter0_dd_14_81" x="0" y="0" width="321" height="89" filterUnits="userSpaceOnUse" color-interpolation-filters="sRGB">
<feFlood flood-opacity="0" result="BackgroundImageFix"/>
<feColorMatrix in="SourceAlpha" type="matrix" values="0 0 0 0 0 0 0 0 0 0 0 0 0 0 0 0 0 0 127 0" result="hardAlpha"/>
<feOffset dy="7"/>
<feGaussianBlur stdDeviation="10.5"/>
<feComposite in2="hardAlpha" operator="out"/>
<feColorMatrix type="matrix" values="0 0 0 0 0.145098 0 0 0 0 0.172549 0 0 0 0 0.380392 0 0 0 0.2 0"/>
<feBlend mode="normal" in2="BackgroundImageFix" result="effect1_dropShadow_14_81"/>
<feColorMatrix in="SourceAlpha" type="matrix" values="0 0 0 0 0 0 0 0 0 0 0 0 0 0 0 0 0 0 127 0" result="hardAlpha"/>
<feOffset dy="3"/>
<feGaussianBlur stdDeviation="4"/>
<feComposite in2="hardAlpha" operator="out"/>
<feColorMatrix type="matrix" values="0 0 0 0 0.533333 0 0 0 0 0.564706 0 0 0 0 0.760784 0 0 0 0.25 0"/>
<feBlend mode="normal" in2="effect1_dropShadow_14_81" result="effect2_dropShadow_14_81"/>
<feBlend mode="normal" in="SourceGraphic" in2="effect2_dropShadow_14_81" result="shape"/>
</filter>
</defs>
</svg>
