<svg width="208" height="53" viewBox="0 0 208 53" fill="none" xmlns="http://www.w3.org/2000/svg">
<path d="M7.056 2.448C10.368 2.448 12.792 5.52 12.792 10.368C12.792 15.264 10.368 18.336 7.056 18.336C3.72 18.336 1.32 15.264 1.32 10.368C1.32 5.52 3.72 2.448 7.056 2.448ZM7.056 5.352C5.448 5.352 4.368 7.104 4.368 10.368C4.368 13.68 5.448 15.456 7.056 15.456C8.688 15.456 9.744 13.68 9.744 10.368C9.744 7.104 8.688 5.352 7.056 5.352ZM16.44 0.887999H19.608V23.184H16.44V0.887999ZM11.856 8.904H17.784V11.472H11.856V8.904ZM26.4461 20.208H42.4061V22.752H26.4461V20.208ZM26.4461 15.648H29.6621V21.792H26.4461V15.648ZM38.6861 0.935999H41.8541V17.016H38.6861V0.935999ZM35.7581 6.768H41.4221V9.312H35.7581V6.768ZM23.3501 11.352H24.4781C26.3501 11.352 27.6701 11.304 29.3021 10.968L29.5421 13.536C27.8141 13.896 26.4701 13.896 24.4781 13.896H23.3501V11.352ZM23.3501 2.592H29.1821V5.136H26.4941V11.832H23.3501V2.592ZM30.2381 11.352H31.4381C34.2461 11.352 35.4701 11.304 36.9101 10.944L37.1741 13.512C35.6381 13.848 34.3661 13.896 31.4381 13.896H30.2381V11.352ZM30.2381 2.592H36.4061V5.136H33.3581V11.808H30.2381V2.592ZM52.2405 2.784H66.3045V5.352H52.2405V2.784ZM50.2965 17.88H70.3845V20.472H50.2965V17.88ZM54.4965 10.872H57.6645V18.696H54.4965V10.872ZM65.3685 2.784H68.5845V4.968C68.5845 7.656 68.5845 10.728 67.7925 15.24L64.6245 14.928C65.3685 10.704 65.3685 7.584 65.3685 4.968V2.784ZM59.9925 10.872H63.1365V18.696H59.9925V10.872ZM72.3266 12.36H92.4386V14.856H72.3266V12.36ZM80.7746 9.984H83.9666V13.272H80.7746V9.984ZM74.8226 8.592H90.3026V11.016H74.8226V8.592ZM74.8226 1.464H90.1346V3.888H77.9906V9.96H74.8226V1.464ZM77.1026 5.064H89.6306V7.392H77.1026V5.064ZM82.3586 15.84C87.2306 15.84 90.0626 17.136 90.0626 19.488C90.0626 21.864 87.2306 23.136 82.3586 23.136C77.4626 23.136 74.6306 21.864 74.6306 19.488C74.6306 17.136 77.4626 15.84 82.3586 15.84ZM82.3586 18.192C79.2626 18.192 77.8466 18.576 77.8466 19.488C77.8466 20.424 79.2626 20.808 82.3586 20.808C85.4306 20.808 86.8466 20.424 86.8466 19.488C86.8466 18.576 85.4306 18.192 82.3586 18.192ZM110.941 3.792H114.781V6.408H110.941V3.792ZM110.941 8.616H114.781V11.232H110.941V8.616ZM108.733 0.912H111.925V14.016H108.733V0.912ZM97.0928 14.928H111.925V23.136H108.733V17.472H97.0928V14.928ZM100.621 2.112C104.053 2.112 106.669 4.392 106.669 7.56C106.669 10.728 104.053 12.984 100.621 12.984C97.1888 12.984 94.5728 10.728 94.5728 7.56C94.5728 4.392 97.1888 2.112 100.621 2.112ZM100.621 4.824C98.9408 4.824 97.6928 5.808 97.6928 7.56C97.6928 9.312 98.9408 10.32 100.621 10.32C102.301 10.32 103.549 9.312 103.549 7.56C103.549 5.808 102.301 4.824 100.621 4.824ZM121.499 4.416H124.019V6.912C124.019 11.928 121.907 17.04 117.827 18.96L116.027 16.44C119.699 14.712 121.499 10.56 121.499 6.912V4.416ZM122.171 4.416H124.691V6.912C124.691 10.272 126.419 14.208 130.067 15.888L128.315 18.408C124.235 16.512 122.171 11.64 122.171 6.912V4.416ZM116.891 3.048H129.083V5.664H116.891V3.048ZM130.715 0.912H133.931V23.136H130.715V0.912ZM133.211 9.384H137.147V12.024H133.211V9.384ZM148.277 14.952H151.541V23.136H148.277V14.952ZM155.957 14.952H159.221V23.136H155.957V14.952ZM143.741 13.272H163.877V15.84H143.741V13.272ZM153.749 1.656C158.501 1.656 161.789 3.6 161.789 6.648C161.789 9.648 158.501 11.592 153.749 11.592C149.021 11.592 145.733 9.648 145.733 6.648C145.733 3.6 149.021 1.656 153.749 1.656ZM153.749 4.2C150.845 4.2 148.997 5.064 148.997 6.648C148.997 8.208 150.845 9.072 153.749 9.072C156.677 9.072 158.501 8.208 158.501 6.648C158.501 5.064 156.677 4.2 153.749 4.2ZM178.371 5.784H182.451V8.328H178.371V5.784ZM178.323 10.224H182.379V12.768H178.323V10.224ZM165.891 2.904H178.083V5.424H165.891V2.904ZM172.131 6.192C175.179 6.192 177.339 7.872 177.339 10.344C177.339 12.816 175.179 14.496 172.131 14.496C169.083 14.496 166.923 12.816 166.923 10.344C166.923 7.872 169.083 6.192 172.131 6.192ZM172.131 8.568C170.787 8.568 169.899 9.168 169.899 10.344C169.899 11.52 170.787 12.12 172.131 12.12C173.451 12.12 174.387 11.52 174.387 10.344C174.387 9.168 173.451 8.568 172.131 8.568ZM170.547 0.719999H173.739V4.656H170.547V0.719999ZM181.227 0.912H184.419V15.072H181.227V0.912ZM176.907 15.336C181.587 15.336 184.515 16.8 184.515 19.248C184.515 21.696 181.587 23.136 176.907 23.136C172.203 23.136 169.299 21.696 169.299 19.248C169.299 16.8 172.203 15.336 176.907 15.336ZM176.907 17.784C174.171 17.784 172.659 18.216 172.659 19.248C172.659 20.256 174.171 20.736 176.907 20.736C179.643 20.736 181.131 20.256 181.131 19.248C181.131 18.216 179.643 17.784 176.907 17.784ZM196.778 9.096H200.426V11.664H196.778V9.096ZM203.954 0.912H207.002V23.136H203.954V0.912ZM199.418 1.248H202.418V22.128H199.418V1.248ZM192.89 2.472C195.842 2.472 197.738 5.52 197.738 10.536C197.738 15.576 195.842 18.624 192.89 18.624C189.962 18.624 188.09 15.576 188.09 10.536C188.09 5.52 189.962 2.472 192.89 2.472ZM192.89 5.472C191.69 5.472 190.994 7.152 190.994 10.536C190.994 13.944 191.69 15.6 192.89 15.6C194.138 15.6 194.834 13.944 194.834 10.536C194.834 7.152 194.138 5.472 192.89 5.472ZM0.936 33.248H11.568V35.792H0.936V33.248ZM6.288 36.776C9.12 36.776 11.16 38.96 11.16 42.08C11.16 45.176 9.12 47.36 6.288 47.36C3.48 47.36 1.416 45.176 1.416 42.08C1.416 38.96 3.48 36.776 6.288 36.776ZM6.288 39.44C5.088 39.44 4.248 40.4 4.248 42.08C4.248 43.76 5.088 44.696 6.288 44.696C7.488 44.696 8.352 43.76 8.352 42.08C8.352 40.4 7.488 39.44 6.288 39.44ZM17.016 29.912H20.064V52.136H17.016V29.912ZM14.352 38.936H18.024V41.504H14.352V38.936ZM12.36 30.32H15.336V51.2H12.36V30.32ZM4.728 30.512H7.872V34.856H4.728V30.512ZM37.3661 29.912H40.5821V42.728H37.3661V29.912ZM39.6461 35.168H43.4861V37.76H39.6461V35.168ZM33.2861 43.136C37.8461 43.136 40.7981 44.84 40.7981 47.648C40.7981 50.48 37.8461 52.16 33.2861 52.16C28.7021 52.16 25.7501 50.48 25.7501 47.648C25.7501 44.84 28.7021 43.136 33.2861 43.136ZM33.2861 45.68C30.4541 45.68 28.8941 46.304 28.8941 47.648C28.8941 48.968 30.4541 49.616 33.2861 49.616C36.0941 49.616 37.6541 48.968 37.6541 47.648C37.6541 46.304 36.0941 45.68 33.2861 45.68ZM23.8061 39.032H25.6541C30.5501 39.032 32.9741 38.912 35.6381 38.336L35.9501 40.88C33.2381 41.48 30.6701 41.576 25.6541 41.576H23.8061V39.032ZM23.8061 31.4H33.7421V33.944H26.9741V40.76H23.8061V31.4ZM59.3723 29.912H62.5403V52.136H59.3723V29.912ZM61.8203 38.576H65.7563V41.24H61.8203V38.576ZM45.0203 33.2H57.9563V35.744H45.0203V33.2ZM51.5243 36.992C54.7643 36.992 57.1643 39.2 57.1643 42.296C57.1643 45.392 54.7643 47.6 51.5243 47.6C48.2843 47.6 45.8843 45.392 45.8843 42.296C45.8843 39.2 48.2843 36.992 51.5243 36.992ZM51.5243 39.584C50.0123 39.584 48.9323 40.592 48.9323 42.296C48.9323 44 50.0123 45.008 51.5243 45.008C53.0363 45.008 54.1163 44 54.1163 42.296C54.1163 40.592 53.0363 39.584 51.5243 39.584ZM49.9163 30.272H53.1083V34.16H49.9163V30.272ZM83.7784 38.312H87.6904V40.928H83.7784V38.312ZM81.4024 29.888H84.6184V52.112H81.4024V29.888ZM67.8664 32.024H71.0584V45.824H67.8664V32.024ZM67.8664 44.048H69.7864C72.9544 44.048 76.3864 43.832 79.9624 43.112L80.2984 45.728C76.6264 46.496 73.0504 46.688 69.7864 46.688H67.8664V44.048ZM93.7125 41.192H96.8805V47.432H93.7125V41.192ZM101.777 41.192H104.969V47.432H101.777V41.192ZM89.2965 46.976H109.409V49.568H89.2965V46.976ZM99.3285 30.992C104.105 30.992 107.633 33.344 107.633 36.968C107.633 40.592 104.105 42.92 99.3285 42.92C94.5285 42.92 91.0245 40.592 91.0245 36.968C91.0245 33.344 94.5285 30.992 99.3285 30.992ZM99.3285 33.488C96.2325 33.488 94.1685 34.76 94.1685 36.968C94.1685 39.152 96.2325 40.448 99.3285 40.448C102.424 40.448 104.489 39.152 104.489 36.968C104.489 34.76 102.424 33.488 99.3285 33.488ZM114.993 44.6562V44.3068C114.993 43.3409 115.072 42.571 115.232 41.9972C115.396 41.4233 115.635 40.9631 115.947 40.6165C116.26 40.2642 116.641 39.9432 117.089 39.6534C117.447 39.4261 117.766 39.196 118.044 38.9631C118.328 38.7244 118.553 38.4687 118.717 38.196C118.882 37.9233 118.964 37.6136 118.964 37.267C118.964 36.9318 118.885 36.6364 118.726 36.3807C118.567 36.125 118.348 35.929 118.07 35.7926C117.797 35.6506 117.493 35.5795 117.158 35.5795C116.822 35.5795 116.507 35.6562 116.212 35.8097C115.922 35.9631 115.683 36.1818 115.496 36.4659C115.314 36.7443 115.22 37.0824 115.214 37.4801H111.294C111.311 36.2869 111.587 35.3097 112.121 34.5483C112.661 33.7869 113.374 33.2244 114.26 32.8608C115.146 32.4915 116.124 32.3068 117.192 32.3068C118.362 32.3068 119.402 32.4886 120.311 32.8523C121.226 33.2159 121.945 33.7528 122.467 34.4631C122.99 35.1733 123.251 36.0426 123.251 37.071C123.251 37.7472 123.138 38.3437 122.911 38.8608C122.683 39.3778 122.365 39.8352 121.956 40.233C121.553 40.625 121.078 40.983 120.533 41.3068C120.107 41.5568 119.751 41.8182 119.467 42.0909C119.189 42.3636 118.979 42.6761 118.837 43.0284C118.695 43.375 118.624 43.8011 118.624 44.3068V44.6562H114.993ZM116.876 50.2472C116.263 50.2472 115.737 50.0312 115.3 49.5994C114.868 49.1676 114.655 48.6449 114.661 48.0312C114.655 47.429 114.868 46.9148 115.3 46.4886C115.737 46.0568 116.263 45.8409 116.876 45.8409C117.462 45.8409 117.976 46.0568 118.419 46.4886C118.862 46.9148 119.087 47.429 119.092 48.0312C119.087 48.4403 118.979 48.8125 118.768 49.1477C118.564 49.483 118.294 49.75 117.959 49.9489C117.629 50.1477 117.268 50.2472 116.876 50.2472Z" fill="black"/>
</svg>
