<svg width="321" height="89" viewBox="0 0 321 89" fill="none" xmlns="http://www.w3.org/2000/svg">
<g filter="url(#filter0_dd_14_75)">
<rect x="21" y="14" width="279" height="47" rx="23.5" fill="white"/>
<path d="M145.698 32.458H147.115V33.212C147.115 35.513 146.036 37.58 143.709 38.347L142.851 36.982C144.853 36.319 145.698 34.746 145.698 33.212V32.458ZM146.049 32.458H147.453V33.212C147.453 34.616 148.259 35.994 150.196 36.579L149.377 37.931C147.089 37.242 146.049 35.357 146.049 33.212V32.458ZM143.306 31.925H149.806V33.303H143.306V31.925ZM150.768 31.119H152.497V38.256H150.768V31.119ZM152.016 33.888H154.096V35.305H152.016V33.888ZM148.571 38.477C151.067 38.477 152.64 39.348 152.64 40.817C152.64 42.286 151.067 43.157 148.571 43.157C146.062 43.157 144.489 42.286 144.489 40.817C144.489 39.348 146.062 38.477 148.571 38.477ZM148.571 39.829C147.037 39.829 146.205 40.141 146.205 40.817C146.205 41.493 147.037 41.831 148.571 41.831C150.105 41.831 150.924 41.493 150.924 40.817C150.924 40.141 150.105 39.829 148.571 39.829ZM157.683 31.964C159.282 31.964 160.309 33.615 160.309 36.332C160.309 39.062 159.282 40.713 157.683 40.713C156.097 40.713 155.083 39.062 155.083 36.332C155.083 33.615 156.097 31.964 157.683 31.964ZM157.683 33.589C157.033 33.589 156.656 34.499 156.656 36.332C156.656 38.178 157.033 39.075 157.683 39.075C158.346 39.075 158.723 38.178 158.723 36.332C158.723 34.499 158.346 33.589 157.683 33.589ZM163.676 31.119H165.327V43.157H163.676V31.119ZM162.233 35.708H164.222V37.099H162.233V35.708ZM161.037 31.301H162.662V42.611H161.037V31.301ZM175.206 31.132H176.948V39.777H175.206V31.132ZM168.927 41.571H177.247V42.949H168.927V41.571ZM168.927 38.906H170.656V42.13H168.927V38.906ZM170.396 31.886C172.242 31.886 173.659 33.16 173.659 34.941C173.659 36.709 172.242 37.996 170.396 37.996C168.55 37.996 167.12 36.709 167.12 34.941C167.12 33.16 168.55 31.886 170.396 31.886ZM170.396 33.381C169.499 33.381 168.81 33.953 168.81 34.941C168.81 35.916 169.499 36.488 170.396 36.488C171.28 36.488 171.969 35.916 171.969 34.941C171.969 33.953 171.28 33.381 170.396 33.381Z" fill="#1BC866"/>
</g>
<defs>
<filter id="filter0_dd_14_75" x="0" y="0" width="321" height="89" filterUnits="userSpaceOnUse" color-interpolation-filters="sRGB">
<feFlood flood-opacity="0" result="BackgroundImageFix"/>
<feColorMatrix in="SourceAlpha" type="matrix" values="0 0 0 0 0 0 0 0 0 0 0 0 0 0 0 0 0 0 127 0" result="hardAlpha"/>
<feOffset dy="7"/>
<feGaussianBlur stdDeviation="10.5"/>
<feComposite in2="hardAlpha" operator="out"/>
<feColorMatrix type="matrix" values="0 0 0 0 0.145098 0 0 0 0 0.172549 0 0 0 0 0.380392 0 0 0 0.2 0"/>
<feBlend mode="normal" in2="BackgroundImageFix" result="effect1_dropShadow_14_75"/>
<feColorMatrix in="SourceAlpha" type="matrix" values="0 0 0 0 0 0 0 0 0 0 0 0 0 0 0 0 0 0 127 0" result="hardAlpha"/>
<feOffset dy="3"/>
<feGaussianBlur stdDeviation="4"/>
<feComposite in2="hardAlpha" operator="out"/>
<feColorMatrix type="matrix" values="0 0 0 0 0.533333 0 0 0 0 0.564706 0 0 0 0 0.760784 0 0 0 0.25 0"/>
<feBlend mode="normal" in2="effect1_dropShadow_14_75" result="effect2_dropShadow_14_75"/>
<feBlend mode="normal" in="SourceGraphic" in2="effect2_dropShadow_14_75" result="shape"/>
</filter>
</defs>
</svg>
