<svg width="243" height="53" viewBox="0 0 243 53" fill="none" xmlns="http://www.w3.org/2000/svg">
<path d="M19.743 0.912H22.935V17.28H19.743V0.912ZM4.887 2.496H16.623V5.04H4.887V2.496ZM4.647 14.64L4.335 12.024C7.911 12.024 12.903 11.976 16.911 11.52L17.079 13.848C12.951 14.544 8.175 14.64 4.647 14.64ZM6.639 4.728H9.711V12.336H6.639V4.728ZM11.799 4.728H14.847V12.336H11.799V4.728ZM17.055 4.8H21.471V7.344H17.055V4.8ZM17.055 9.264H21.471V11.832H17.055V9.264ZM8.247 20.208H23.439V22.752H8.247V20.208ZM8.247 16.08H11.463V22.128H8.247V16.08ZM41.7251 0.887999H44.9171V23.184H41.7251V0.887999ZM27.6131 15.408H29.5811C33.5171 15.408 36.6611 15.264 40.1891 14.664L40.5011 17.232C36.9011 17.88 33.6371 18 29.5811 18H27.6131V15.408ZM27.5891 2.784H38.0771V11.376H30.8531V16.368H27.6131V8.856H34.8131V5.328H27.5891V2.784ZM62.7953 0.935999H65.9873V17.544H62.7953V0.935999ZM65.0753 7.704H68.9393V10.32H65.0753V7.704ZM48.4913 3.24H61.5713V5.736H48.4913V3.24ZM55.0433 6.528C58.2353 6.528 60.4913 8.28 60.4913 10.824C60.4913 13.368 58.2353 15.096 55.0433 15.096C51.8273 15.096 49.5713 13.368 49.5713 10.824C49.5713 8.28 51.8273 6.528 55.0433 6.528ZM55.0433 8.952C53.6273 8.952 52.6433 9.624 52.6433 10.824C52.6433 12.024 53.6273 12.672 55.0433 12.672C56.4593 12.672 57.4433 12.024 57.4433 10.824C57.4433 9.624 56.4593 8.952 55.0433 8.952ZM53.4353 0.887999H56.6273V4.464H53.4353V0.887999ZM51.6593 20.208H66.7793V22.752H51.6593V20.208ZM51.6593 16.296H54.8513V21.312H51.6593V16.296ZM91.2056 0.887999H94.3736V23.184H91.2056V0.887999ZM86.1656 8.712H92.1176V11.28H86.1656V8.712ZM76.5416 2.64H79.7096V8.016H84.0776V2.64H87.2216V17.952H76.5416V2.64ZM79.7096 10.488V15.384H84.0776V10.488H79.7096ZM106.06 2.184H108.844V3.792C108.844 8.616 105.412 12.888 99.6518 14.016L98.2838 11.376C103.3 10.512 106.06 6.984 106.06 3.792V2.184ZM106.708 2.184H109.468V3.792C109.468 7.056 112.204 10.512 117.244 11.376L115.876 14.016C110.116 12.888 106.708 8.688 106.708 3.792V2.184ZM97.8278 17.832H117.94V20.424H97.8278V17.832ZM125.854 10.248H127.702C132.022 10.248 134.566 10.176 137.47 9.648L137.806 12.144C134.83 12.672 132.142 12.768 127.702 12.768H125.854V10.248ZM125.854 2.016H136.294V4.536H129.046V11.4H125.854V2.016ZM128.062 6.144H135.814V8.616H128.062V6.144ZM139.342 0.912H142.534V13.224H139.342V0.912ZM141.646 5.688H145.486V8.304H141.646V5.688ZM128.014 14.136H131.182V16.032H139.366V14.136H142.534V22.896H128.014V14.136ZM131.182 18.48V20.352H139.366V18.48H131.182ZM155.54 1.272H158.276V1.944C158.276 5.904 154.988 9.144 149.276 9.936L148.1 7.44C153.092 6.84 155.54 4.272 155.54 1.944V1.272ZM156.068 1.272H158.804V1.944C158.804 4.272 161.252 6.84 166.22 7.44L165.068 9.936C159.356 9.144 156.068 5.88 156.068 1.944V1.272ZM147.116 11.112H167.204V13.632H147.116V11.112ZM157.124 15.096C161.924 15.096 164.828 16.56 164.828 19.128C164.828 21.72 161.924 23.16 157.124 23.16C152.3 23.16 149.396 21.72 149.396 19.128C149.396 16.56 152.3 15.096 157.124 15.096ZM157.124 17.496C154.148 17.496 152.636 18.024 152.636 19.128C152.636 20.256 154.148 20.76 157.124 20.76C160.1 20.76 161.612 20.256 161.612 19.128C161.612 18.024 160.1 17.496 157.124 17.496ZM179.25 1.224C184.314 1.224 187.29 2.568 187.29 5.016C187.29 7.464 184.314 8.808 179.25 8.808C174.162 8.808 171.21 7.464 171.21 5.016C171.21 2.568 174.162 1.224 179.25 1.224ZM179.25 3.552C176.034 3.552 174.522 4.032 174.522 5.016C174.522 6.048 176.034 6.48 179.25 6.48C182.466 6.48 183.978 6.048 183.978 5.016C183.978 4.032 182.466 3.552 179.25 3.552ZM169.194 9.84H189.282V12.36H169.194V9.84ZM171.498 13.608H186.858V19.32H174.666V21.288H171.522V17.112H183.714V15.984H171.498V13.608ZM171.522 20.592H187.434V22.992H171.522V20.592ZM203.629 1.8C207.013 1.8 209.461 3.744 209.461 6.552C209.461 9.312 207.013 11.304 203.629 11.304C200.269 11.304 197.821 9.312 197.821 6.552C197.821 3.744 200.269 1.8 203.629 1.8ZM203.629 4.392C202.021 4.392 200.869 5.16 200.869 6.552C200.869 7.92 202.021 8.688 203.629 8.688C205.261 8.688 206.413 7.92 206.413 6.552C206.413 5.16 205.261 4.392 203.629 4.392ZM202.141 13.512H205.333V22.464H202.141V13.512ZM211.861 0.912H215.029V23.136H211.861V0.912ZM196.885 15.192L196.501 12.6C200.389 12.6 205.885 12.552 210.589 11.832L210.805 14.16C205.981 15.12 200.725 15.168 196.885 15.192ZM218.483 4.248H229.115V6.792H218.483V4.248ZM223.835 7.776C226.667 7.776 228.707 9.96 228.707 13.08C228.707 16.176 226.667 18.36 223.835 18.36C221.027 18.36 218.963 16.176 218.963 13.08C218.963 9.96 221.027 7.776 223.835 7.776ZM223.835 10.44C222.635 10.44 221.795 11.4 221.795 13.08C221.795 14.76 222.635 15.696 223.835 15.696C225.035 15.696 225.899 14.76 225.899 13.08C225.899 11.4 225.035 10.44 223.835 10.44ZM234.563 0.912H237.611V23.136H234.563V0.912ZM231.899 9.936H235.571V12.504H231.899V9.936ZM229.907 1.32H232.883V22.2H229.907V1.32ZM222.275 1.512H225.419V5.856H222.275V1.512ZM0.267401 38V36.0568C0.267401 35.517 0.372514 34.9716 0.582742 34.4205C0.798651 33.8636 1.07706 33.3466 1.41797 32.8693C1.76456 32.3864 2.12251 31.9886 2.49183 31.6761L4.26456 32.6477C3.95774 33.1477 3.71342 33.6705 3.53161 34.2159C3.34979 34.7557 3.26172 35.3665 3.2674 36.0483V38H0.267401ZM21.4908 29.888H24.6588V52.184H21.4908V29.888ZM16.4508 37.712H22.4028V40.28H16.4508V37.712ZM6.82678 31.64H9.99478V37.016H14.3628V31.64H17.5068V46.952H6.82678V31.64ZM9.99478 39.488V44.384H14.3628V39.488H9.99478ZM36.3449 31.184H39.1289V32.792C39.1289 37.616 35.6969 41.888 29.9369 43.016L28.5689 40.376C33.5849 39.512 36.3449 35.984 36.3449 32.792V31.184ZM36.9929 31.184H39.7529V32.792C39.7529 36.056 42.4889 39.512 47.5289 40.376L46.1609 43.016C40.4009 41.888 36.9929 37.688 36.9929 32.792V31.184ZM28.1129 46.832H48.2249V49.424H28.1129V46.832ZM51.031 44.528H52.903C56.647 44.528 59.503 44.48 62.815 43.952L63.103 46.496C59.743 47.024 56.719 47.12 52.903 47.12H51.031V44.528ZM51.031 31.76H61.471V34.352H54.247V45.368H51.031V31.76ZM53.479 37.928H61.159V40.424H53.479V37.928ZM64.375 29.912H67.591V52.136H64.375V29.912ZM66.871 38.336H70.807V40.976H66.871V38.336ZM73.3492 31.904H84.0292V46.856H73.3492V31.904ZM80.9092 34.4H76.4932V44.336H80.9092V34.4ZM87.4852 29.888H90.7012V52.184H87.4852V29.888ZM98.1531 32.5455V34.4886C98.1531 35.0284 98.0451 35.5739 97.8292 36.125C97.619 36.6705 97.3434 37.1818 97.0025 37.6591C96.6616 38.1364 96.3008 38.5398 95.9201 38.8693L94.1474 37.8977C94.4087 37.4659 94.6417 36.9801 94.8462 36.4403C95.0508 35.8949 95.1531 35.2472 95.1531 34.4972V32.5455H98.1531ZM114.344 29.888H117.56V52.112H114.344V29.888ZM116.72 38.384H120.632V41H116.72V38.384ZM108.512 32.192H111.632C111.632 38.864 109.088 44.576 101.696 48.296L99.9198 45.872C105.752 42.848 108.512 38.768 108.512 32.744V32.192ZM101.144 32.192H110.144V34.76H101.144V32.192ZM129.722 39.824H145.346V42.368H129.722V39.824ZM127.394 47.024H147.506V49.64H127.394V47.024ZM135.818 40.976H139.01V47.864H135.818V40.976ZM129.722 31.424H145.178V33.992H132.914V40.928H129.722V31.424ZM154.44 41.168H157.632V46.424H154.44V41.168ZM156 31.208C159.432 31.208 162.048 33.488 162.048 36.68C162.048 39.872 159.432 42.152 156 42.152C152.544 42.152 149.952 39.872 149.952 36.68C149.952 33.488 152.544 31.208 156 31.208ZM156 33.92C154.32 33.92 153.072 34.928 153.072 36.68C153.072 38.408 154.32 39.44 156 39.44C157.68 39.44 158.928 38.408 158.928 36.68C158.928 34.928 157.68 33.92 156 33.92ZM163.8 29.912H166.992V52.136H163.8V29.912ZM166.008 38.6H169.92V41.264H166.008V38.6ZM149.592 47.72L149.208 45.152C153.048 45.128 158.232 45.152 162.648 44.552L162.888 46.88C158.28 47.744 153.336 47.744 149.592 47.72ZM179.974 40.496H183.166V43.592H179.974V40.496ZM171.526 38.744H191.614V41.24H171.526V38.744ZM173.83 42.632H189.19V48.344H176.998V50.288H173.854V46.16H186.046V44.96H173.83V42.632ZM173.854 49.616H189.766V51.992H173.854V49.616ZM179.662 31.472H182.446V32.024C182.446 35.192 179.302 37.712 173.398 38.144L172.414 35.744C177.478 35.408 179.662 33.632 179.662 32.024V31.472ZM180.694 31.472H183.478V32.024C183.478 33.632 185.662 35.408 190.75 35.744L189.766 38.144C183.862 37.712 180.694 35.216 180.694 32.024V31.472ZM173.35 30.512H189.814V32.984H173.35V30.512ZM209.709 29.912H212.757V52.136H209.709V29.912ZM200.901 38.432H205.653V40.952H200.901V38.432ZM205.029 30.392H208.005V51.152H205.029V30.392ZM200.181 32.528H203.253C203.253 38.864 201.357 43.904 195.117 47.528L193.317 45.296C198.381 42.248 200.181 38.552 200.181 33.176V32.528ZM194.565 32.528H201.189V35.072H194.565V32.528ZM220.123 41.192H223.291V47.432H220.123V41.192ZM228.187 41.192H231.379V47.432H228.187V41.192ZM215.707 46.976H235.819V49.568H215.707V46.976ZM225.739 30.992C230.515 30.992 234.043 33.344 234.043 36.968C234.043 40.592 230.515 42.92 225.739 42.92C220.939 42.92 217.435 40.592 217.435 36.968C217.435 33.344 220.939 30.992 225.739 30.992ZM225.739 33.488C222.643 33.488 220.579 34.76 220.579 36.968C220.579 39.152 222.643 40.448 225.739 40.448C228.835 40.448 230.899 39.152 230.899 36.968C230.899 34.76 228.835 33.488 225.739 33.488ZM240.466 50.2472C239.852 50.2472 239.326 50.0312 238.889 49.5994C238.457 49.1676 238.244 48.6449 238.25 48.0312C238.244 47.429 238.457 46.9148 238.889 46.4886C239.326 46.0568 239.852 45.8409 240.466 45.8409C241.045 45.8409 241.556 46.0568 242 46.4886C242.449 46.9148 242.676 47.429 242.681 48.0312C242.676 48.4403 242.568 48.8125 242.358 49.1477C242.153 49.483 241.883 49.75 241.548 49.9489C241.218 50.1477 240.858 50.2472 240.466 50.2472Z" fill="black"/>
</svg>
