<svg width="106" height="34" viewBox="0 0 106 34" fill="none" xmlns="http://www.w3.org/2000/svg">
<rect width="105.787" height="34" rx="17" fill="#58D78F"/>
<path d="M25.2492 16.204H27.1112V18.066H25.2492V16.204ZM30.7372 10.296H32.5992V19.116H30.7372V10.296ZM31.9412 13.992H34.2232V15.518H31.9412V13.992ZM22.3652 18.864L22.1552 17.422C24.4792 17.422 27.5452 17.408 30.1632 17.086L30.3032 18.36C27.6012 18.822 24.6332 18.85 22.3652 18.864ZM23.8072 19.634H32.5992V23.246H30.7372V21.062H23.8072V19.634ZM22.4912 11.234H29.8412V12.564H22.4912V11.234ZM26.1732 12.872C28.0772 12.872 29.3232 13.614 29.3232 14.804C29.3232 15.994 28.0772 16.736 26.1732 16.736C24.2552 16.736 23.0092 15.994 23.0092 14.804C23.0092 13.614 24.2552 12.872 26.1732 12.872ZM26.1732 14.09C25.2912 14.09 24.7732 14.314 24.7732 14.804C24.7732 15.266 25.2912 15.518 26.1732 15.518C27.0412 15.518 27.5592 15.266 27.5592 14.804C27.5592 14.314 27.0412 14.09 26.1732 14.09ZM25.2492 10.184H27.1112V11.836H25.2492V10.184ZM44.0921 10.296H45.9681V19.606H44.0921V10.296ZM37.3301 21.538H46.2901V23.022H37.3301V21.538ZM37.3301 18.668H39.1921V22.14H37.3301V18.668ZM38.9121 11.108C40.9001 11.108 42.4261 12.48 42.4261 14.398C42.4261 16.302 40.9001 17.688 38.9121 17.688C36.9241 17.688 35.3841 16.302 35.3841 14.398C35.3841 12.48 36.9241 11.108 38.9121 11.108ZM38.9121 12.718C37.9461 12.718 37.2041 13.334 37.2041 14.398C37.2041 15.448 37.9461 16.064 38.9121 16.064C39.8641 16.064 40.6061 15.448 40.6061 14.398C40.6061 13.334 39.8641 12.718 38.9121 12.718ZM54.0288 15.532H55.8908V17.492H54.0288V15.532ZM54.9388 10.8C56.8148 10.8 58.1728 11.878 58.1728 13.446C58.1728 14.986 56.8148 16.064 54.9388 16.064C53.0628 16.064 51.7048 14.986 51.7048 13.446C51.7048 11.878 53.0628 10.8 54.9388 10.8ZM54.9388 12.2C54.0568 12.2 53.4408 12.648 53.4408 13.446C53.4408 14.23 54.0568 14.678 54.9388 14.678C55.8348 14.678 56.4368 14.23 56.4368 13.446C56.4368 12.648 55.8348 12.2 54.9388 12.2ZM59.5028 10.296H61.3648V20.18H59.5028V10.296ZM60.7068 14.356H62.9888V15.882H60.7068V14.356ZM52.7128 21.524H61.7988V23.022H52.7128V21.524ZM52.7128 19.326H54.5888V22.168H52.7128V19.326ZM51.2428 18.5L51.0328 17.016C53.2308 17.016 56.2688 17.002 58.8168 16.638L58.9428 17.968C56.3248 18.458 53.3848 18.5 51.2428 18.5ZM66.9357 17.842H68.7557V20.894H66.9357V17.842ZM71.0377 17.828H72.8578V20.894H71.0377V17.828ZM63.9677 20.306H75.6998V21.818H63.9677V20.306ZM65.2837 11.122H74.3837V15.42H67.1597V17.618H65.3117V13.964H72.5358V12.592H65.2837V11.122ZM65.3117 16.834H74.6777V18.332H65.3117V16.834ZM82.9097 11.8182L82.681 18.8828H80.6377L80.409 11.8182H82.9097ZM81.6569 22.1442C81.3023 22.1442 80.9973 22.0182 80.7421 21.7663C80.4902 21.5144 80.3643 21.2095 80.3643 20.8516C80.3643 20.5002 80.4902 20.2003 80.7421 19.9517C80.9973 19.6998 81.3023 19.5739 81.6569 19.5739C81.9983 19.5739 82.2982 19.6998 82.5568 19.9517C82.8186 20.2003 82.9495 20.5002 82.9495 20.8516C82.9495 21.0902 82.8882 21.3073 82.7656 21.5028C82.6462 21.6984 82.4888 21.8542 82.2933 21.9702C82.101 22.0862 81.8889 22.1442 81.6569 22.1442Z" fill="white"/>
</svg>
