<svg width="40" height="55" viewBox="0 0 40 55" fill="none" xmlns="http://www.w3.org/2000/svg">
<ellipse cx="20.5635" cy="19.9429" rx="18.3099" ry="18.2087" fill="white"/>
<path d="M20 0C8.93333 0 0 9.19831 0 20.5932C0 34.322 20 54.9153 20 54.9153C20 54.9153 40 34.322 40 20.5932C40 9.19831 31.0667 0 20 0ZM20 6.86441C27.4 6.86441 33.3333 13.0424 33.3333 20.5932C33.3333 28.2127 27.4 34.322 20 34.322C12.6667 34.322 6.66667 28.2127 6.66667 20.5932C6.66667 13.0424 12.6667 6.86441 20 6.86441Z" fill="#1BC866"/>
<path d="M10.8014 24V16.7273H13.8341C14.3786 16.7273 14.8343 16.8042 15.2013 16.9581C15.5706 17.112 15.8476 17.3274 16.0322 17.6044C16.2193 17.8814 16.3128 18.2022 16.3128 18.5668C16.3128 18.8438 16.2548 19.0911 16.1388 19.3089C16.0228 19.5244 15.863 19.7031 15.6594 19.8452C15.4558 19.9872 15.2202 20.0866 14.9527 20.1435V20.2145C15.2462 20.2287 15.5173 20.308 15.7659 20.4524C16.0168 20.5968 16.2181 20.7981 16.3696 21.0561C16.5211 21.3118 16.5969 21.6148 16.5969 21.9652C16.5969 22.3558 16.4974 22.705 16.2986 23.0128C16.0997 23.3182 15.8121 23.5597 15.4356 23.7372C15.0592 23.9124 14.6023 24 14.0649 24H10.8014ZM12.5592 22.5831H13.6459C14.027 22.5831 14.3076 22.5109 14.4875 22.3665C14.6698 22.2221 14.7609 22.0208 14.7609 21.7628C14.7609 21.5758 14.7171 21.4148 14.6295 21.2798C14.5419 21.1425 14.4176 21.0372 14.2567 20.9638C14.0957 20.888 13.9027 20.8501 13.6778 20.8501H12.5592V22.5831ZM12.5592 19.7173H13.5322C13.724 19.7173 13.8944 19.6854 14.0436 19.6214C14.1927 19.5575 14.3087 19.4652 14.3916 19.3445C14.4768 19.2237 14.5194 19.0781 14.5194 18.9077C14.5194 18.6638 14.433 18.4721 14.2602 18.3324C14.0874 18.1927 13.8542 18.1229 13.5606 18.1229H12.5592V19.7173ZM21.8419 16.7273H23.5961V21.4183C23.5961 21.9605 23.4671 22.4328 23.2091 22.8352C22.951 23.2353 22.5912 23.5455 22.1295 23.7656C21.6679 23.9834 21.1317 24.0923 20.5209 24.0923C19.903 24.0923 19.3632 23.9834 18.9015 23.7656C18.4399 23.5455 18.0812 23.2353 17.8256 22.8352C17.5699 22.4328 17.442 21.9605 17.442 21.4183V16.7273H19.1998V21.2656C19.1998 21.5166 19.2543 21.7403 19.3632 21.9368C19.4745 22.1333 19.6295 22.2872 19.8284 22.3984C20.0273 22.5097 20.2581 22.5653 20.5209 22.5653C20.7836 22.5653 21.0133 22.5097 21.2098 22.3984C21.4086 22.2872 21.5637 22.1333 21.675 21.9368C21.7863 21.7403 21.8419 21.5166 21.8419 21.2656V16.7273ZM28.629 18.9077C28.6053 18.6473 28.5 18.4448 28.3129 18.3004C28.1283 18.1536 27.8643 18.0803 27.521 18.0803C27.2938 18.0803 27.1044 18.1098 26.9529 18.169C26.8013 18.2282 26.6877 18.3099 26.6119 18.4141C26.5362 18.5159 26.4971 18.633 26.4948 18.7656C26.49 18.8745 26.5113 18.9704 26.5587 19.0533C26.6084 19.1361 26.6794 19.2095 26.7718 19.2734C26.8664 19.335 26.9801 19.3894 27.1127 19.4368C27.2452 19.4841 27.3944 19.5256 27.5601 19.5611L28.1851 19.7031C28.545 19.7812 28.8622 19.8854 29.1368 20.0156C29.4138 20.1458 29.6458 20.3009 29.8328 20.4808C30.0222 20.6607 30.1655 20.8679 30.2625 21.1023C30.3596 21.3366 30.4093 21.5994 30.4117 21.8906C30.4093 22.3499 30.2933 22.7441 30.0637 23.0732C29.834 23.4022 29.5038 23.6544 29.0729 23.8295C28.6444 24.0047 28.1271 24.0923 27.521 24.0923C26.9126 24.0923 26.3823 24.0012 25.9301 23.8189C25.478 23.6366 25.1264 23.3596 24.8754 22.9879C24.6245 22.6162 24.4955 22.1463 24.4884 21.5781H26.1716C26.1858 21.8125 26.2486 22.0078 26.3598 22.1641C26.4711 22.3203 26.6238 22.4387 26.8179 22.5192C27.0144 22.5997 27.2417 22.6399 27.4997 22.6399C27.7365 22.6399 27.9377 22.608 28.1034 22.544C28.2715 22.4801 28.4005 22.3913 28.4905 22.2777C28.5805 22.1641 28.6266 22.0339 28.629 21.8871C28.6266 21.7498 28.584 21.6326 28.5012 21.5355C28.4183 21.4361 28.2905 21.3509 28.1176 21.2798C27.9472 21.2064 27.7294 21.139 27.4642 21.0774L26.7043 20.8999C26.0745 20.7554 25.5786 20.5223 25.2164 20.2003C24.8541 19.8759 24.6742 19.438 24.6766 18.8864C24.6742 18.4366 24.795 18.0424 25.0388 17.7038C25.2826 17.3653 25.62 17.1013 26.0509 16.9119C26.4817 16.7225 26.973 16.6278 27.5246 16.6278C28.088 16.6278 28.5769 16.7237 28.9912 16.9155C29.4079 17.1049 29.731 17.3712 29.9607 17.7145C30.1903 18.0578 30.3075 18.4555 30.3122 18.9077H28.629Z" fill="#1BC866"/>
</svg>
