<svg width="346" height="111" viewBox="0 0 346 111" fill="none" xmlns="http://www.w3.org/2000/svg">
<g filter="url(#filter0_dd_115_636)">
<rect x="21" y="14" width="304" height="75" rx="37.5" fill="#1BC866"/>
<path d="M108.875 54.844L107 52.9585V48.3127C107.025 46.5875 106.425 44.9116 105.311 43.5943C104.196 42.277 102.643 41.4074 100.938 41.146C99.9479 41.0157 98.9417 41.0979 97.9862 41.3873C97.0307 41.6766 96.148 42.1664 95.3968 42.8239C94.6456 43.4815 94.0432 44.2916 93.63 45.2004C93.2167 46.1092 93.002 47.0956 93.0002 48.094V52.9585L91.1252 54.844C90.8897 55.0834 90.73 55.3869 90.666 55.7167C90.6021 56.0464 90.6367 56.3876 90.7657 56.6977C90.8946 57.0079 91.1121 57.2731 91.391 57.4603C91.6698 57.6475 91.9977 57.7483 92.3335 57.7502H95.8335V58.1044C95.8822 59.1619 96.348 60.157 97.1291 60.8716C97.9101 61.5862 98.9425 61.9621 100 61.9169C101.058 61.9621 102.09 61.5862 102.871 60.8716C103.652 60.157 104.118 59.1619 104.167 58.1044V57.7502H107.667C108.003 57.7483 108.331 57.6475 108.609 57.4603C108.888 57.2731 109.106 57.0079 109.235 56.6977C109.364 56.3876 109.398 56.0464 109.334 55.7167C109.27 55.3869 109.111 55.0834 108.875 54.844ZM102.084 58.1044C102.026 58.6054 101.777 59.0648 101.389 59.387C101.001 59.7091 100.503 59.8691 100 59.8335C99.4971 59.8691 98.9997 59.7091 98.6116 59.387C98.2235 59.0648 97.9746 58.6054 97.9168 58.1044V57.7502H102.084V58.1044Z" fill="white"/>
<path d="M133.884 40.772H136.62V41.444C136.62 45.404 133.332 48.644 127.62 49.436L126.444 46.94C131.436 46.34 133.884 43.772 133.884 41.444V40.772ZM134.412 40.772H137.148V41.444C137.148 43.772 139.596 46.34 144.564 46.94L143.412 49.436C137.7 48.644 134.412 45.38 134.412 41.444V40.772ZM125.46 50.612H145.548V53.132H125.46V50.612ZM135.468 54.596C140.268 54.596 143.172 56.06 143.172 58.628C143.172 61.22 140.268 62.66 135.468 62.66C130.644 62.66 127.74 61.22 127.74 58.628C127.74 56.06 130.644 54.596 135.468 54.596ZM135.468 56.996C132.492 56.996 130.98 57.524 130.98 58.628C130.98 59.756 132.492 60.26 135.468 60.26C138.444 60.26 139.956 59.756 139.956 58.628C139.956 57.524 138.444 56.996 135.468 56.996ZM152.41 46.172H154.882V47.324C154.882 52.004 152.89 56.732 148.858 58.532L147.13 56.084C150.754 54.428 152.41 50.66 152.41 47.324V46.172ZM153.106 46.172H155.578V47.324C155.578 50.492 157.138 54.044 160.618 55.724L158.914 58.148C155.002 56.348 153.106 51.788 153.106 47.324V46.172ZM147.898 44.036H159.994V46.556H147.898V44.036ZM152.386 40.916H155.578V45.332H152.386V40.916ZM161.746 40.412H164.962V62.636H161.746V40.412ZM164.242 49.028H168.178V51.668H164.242V49.028ZM185.528 40.436H188.552V51.86H185.528V40.436ZM181.04 40.82H184.016V51.764H181.04V40.82ZM178.376 45.068H181.928V47.588H178.376V45.068ZM173.456 52.748H188.552V58.724H176.696V61.412H173.48V56.42H185.384V55.196H173.456V52.748ZM173.48 60.044H189.272V62.492H173.48V60.044ZM170.384 41.636H173.384V44.036H176.216V41.636H179.192V51.164H170.384V41.636ZM173.384 46.388V48.74H176.216V46.388H173.384ZM206.751 50.996H209.943V54.092H206.751V50.996ZM208.383 40.628C213.447 40.628 216.423 41.948 216.423 44.396C216.423 46.844 213.447 48.188 208.383 48.188C203.295 48.188 200.343 46.844 200.343 44.396C200.343 41.948 203.295 40.628 208.383 40.628ZM208.383 42.956C205.167 42.956 203.655 43.412 203.655 44.396C203.655 45.428 205.167 45.86 208.383 45.86C211.599 45.86 213.111 45.428 213.111 44.396C213.111 43.412 211.599 42.956 208.383 42.956ZM198.327 49.148H218.415V51.668H198.327V49.148ZM200.631 53.108H215.991V58.82H203.799V60.788H200.655V56.612H212.847V55.484H200.631V53.108ZM200.655 60.092H216.567V62.492H200.655V60.092ZM235.717 40.388H238.909V62.684H235.717V40.388ZM221.605 54.908H223.573C227.509 54.908 230.653 54.764 234.181 54.164L234.493 56.732C230.893 57.38 227.629 57.5 223.573 57.5H221.605V54.908ZM221.581 42.284H232.069V50.876H224.845V55.868H221.605V48.356H228.805V44.828H221.581V42.284ZM257.795 40.412H261.011V62.636H257.795V40.412ZM251.243 42.716H254.411C254.411 49.508 252.107 55.076 244.211 58.892L242.555 56.348C248.939 53.276 251.243 49.244 251.243 43.292V42.716ZM243.731 42.716H252.755V45.236H243.731V42.716Z" fill="white"/>
</g>
<defs>
<filter id="filter0_dd_115_636" x="0" y="0" width="346" height="117" filterUnits="userSpaceOnUse" color-interpolation-filters="sRGB">
<feFlood flood-opacity="0" result="BackgroundImageFix"/>
<feColorMatrix in="SourceAlpha" type="matrix" values="0 0 0 0 0 0 0 0 0 0 0 0 0 0 0 0 0 0 127 0" result="hardAlpha"/>
<feOffset dy="7"/>
<feGaussianBlur stdDeviation="10.5"/>
<feComposite in2="hardAlpha" operator="out"/>
<feColorMatrix type="matrix" values="0 0 0 0 0.145098 0 0 0 0 0.172549 0 0 0 0 0.380392 0 0 0 0.2 0"/>
<feBlend mode="normal" in2="BackgroundImageFix" result="effect1_dropShadow_115_636"/>
<feColorMatrix in="SourceAlpha" type="matrix" values="0 0 0 0 0 0 0 0 0 0 0 0 0 0 0 0 0 0 127 0" result="hardAlpha"/>
<feOffset dy="3"/>
<feGaussianBlur stdDeviation="4"/>
<feComposite in2="hardAlpha" operator="out"/>
<feColorMatrix type="matrix" values="0 0 0 0 0.533333 0 0 0 0 0.564706 0 0 0 0 0.760784 0 0 0 0.25 0"/>
<feBlend mode="normal" in2="effect1_dropShadow_115_636" result="effect2_dropShadow_115_636"/>
<feBlend mode="normal" in="SourceGraphic" in2="effect2_dropShadow_115_636" result="shape"/>
</filter>
</defs>
</svg>
