<svg width="26" height="25" viewBox="0 0 26 25" fill="none" xmlns="http://www.w3.org/2000/svg">
<path d="M21.8752 15.8439L20.0002 13.9585V9.31264C20.0251 7.58746 19.425 5.91151 18.3107 4.59424C17.1964 3.27698 15.6431 2.40737 13.9377 2.14598C12.9479 2.01563 11.9417 2.09787 10.9862 2.3872C10.0307 2.67654 9.14796 3.16631 8.39677 3.82385C7.64557 4.48139 7.04325 5.29158 6.62998 6.20035C6.21671 7.10912 6.002 8.09557 6.00018 9.09389V13.9585L4.12518 15.8439C3.88966 16.0833 3.72995 16.3869 3.66601 16.7166C3.60207 17.0463 3.63674 17.3876 3.76568 17.6977C3.89461 18.0078 4.11211 18.273 4.39096 18.4602C4.66981 18.6474 4.99766 18.7483 5.33351 18.7501H8.83351V19.1043C8.88217 20.1618 9.34804 21.1569 10.1291 21.8715C10.9101 22.5862 11.9425 22.962 13.0002 22.9168C14.0578 22.962 15.0903 22.5862 15.8713 21.8715C16.6523 21.1569 17.1182 20.1618 17.1668 19.1043V18.7501H20.6668C21.0027 18.7483 21.3305 18.6474 21.6094 18.4602C21.8882 18.273 22.1057 18.0078 22.2347 17.6977C22.3636 17.3876 22.3983 17.0463 22.3343 16.7166C22.2704 16.3869 22.1107 16.0833 21.8752 15.8439ZM15.0835 19.1043C15.0257 19.6054 14.7769 20.0648 14.3888 20.3869C14.0007 20.709 13.5033 20.869 13.0002 20.8335C12.4971 20.869 11.9997 20.709 11.6116 20.3869C11.2235 20.0648 10.9746 19.6054 10.9168 19.1043V18.7501H15.0835V19.1043Z" fill="white"/>
</svg>
