<svg width="25" height="26" viewBox="0 0 25 26" fill="none" xmlns="http://www.w3.org/2000/svg">
<path d="M3.24999 3.24999H21.7386V20.6591H3.24999V3.24999ZM20.6023 4.38633H4.38638V19.5227H20.6023V4.38633ZM7.0682 2.44596e-05H17.9318C20.0395 0.00261705 21.7474 1.71053 21.75 3.81799V4.3864H3.24996V3.81823C3.25295 2.76207 3.68136 1.8066 4.37275 1.11362L4.37268 1.11367C5.0594 0.42565 6.00875 0 7.05753 0H7.06873H7.06815L7.0682 2.44596e-05ZM20.5534 3.24999C20.2811 2.03357 19.2113 1.13783 17.9319 1.13636H7.06061C6.32412 1.13636 5.65738 1.43517 5.17506 1.91815C4.82095 2.27285 4.56495 2.72553 4.45117 3.23196L4.44774 3.24999H20.5534ZM3.20454 19.5227H8.72726V23.3409C8.72726 24.2823 7.96411 25.0454 7.02275 25.0454H4.90905C3.96765 25.0454 3.20454 24.2823 3.20454 23.3409V19.5227ZM7.59092 20.6591H4.34088V23.3409C4.34088 23.6547 4.5953 23.9091 4.90905 23.9091H7.0227C7.3365 23.9091 7.59087 23.6547 7.59087 23.3409L7.59092 20.6591ZM16.2159 19.5227H21.75V23.3409C21.75 24.2823 20.9868 25.0454 20.0455 25.0454H17.9205C16.979 25.0454 16.2159 24.2823 16.2159 23.3409L16.2159 19.5227ZM20.6136 20.6591H17.3523V23.3409C17.3523 23.6547 17.6067 23.9091 17.9205 23.9091H20.0454C20.3592 23.9091 20.6136 23.6547 20.6136 23.3409L20.6136 20.6591ZM22.8068 4.34088C24.0176 4.3422 24.9987 5.32338 25 6.53397V9.79543C25 11.0067 24.0181 11.9886 22.8068 11.9886C21.5955 11.9886 20.6136 11.0067 20.6136 9.79543V6.53415C20.6149 5.3234 21.5961 4.34225 22.8067 4.34096H22.8068V4.34088ZM22.8068 10.8523C23.3902 10.8516 23.863 10.3788 23.8637 9.79548V6.53407C23.8637 5.9504 23.3905 5.47722 22.8068 5.47722C22.2231 5.47722 21.75 5.9504 21.75 6.53407V9.79543C21.7506 10.3788 22.2234 10.8516 22.8067 10.8523H22.8068L22.8068 10.8523ZM2.19319 4.34088C3.40393 4.34218 4.38508 5.32333 4.38638 6.53395V9.79543C4.38638 11.0067 3.40447 11.9886 2.19319 11.9886C0.981909 11.9886 0 11.0068 0 9.79543V6.53415C0.0012963 5.3234 0.982447 4.34225 2.19307 4.34096H2.19319V4.34088ZM2.19319 10.8522C2.7766 10.8516 3.24935 10.3788 3.25004 9.79548V6.53407C3.25004 5.9504 2.77686 5.47722 2.19319 5.47722C1.60951 5.47722 1.13634 5.9504 1.13634 6.53407V9.79543C1.137 10.3788 1.60978 10.8516 2.19311 10.8523H2.19319V10.8522ZM9.23864 16.2954C9.23864 17.1929 8.5111 17.9204 7.61362 17.9204C6.71614 17.9204 5.98865 17.1929 5.98865 16.2954C5.98865 15.398 6.71619 14.6704 7.61367 14.6704C8.51115 14.6704 9.23864 15.398 9.23864 16.2954ZM19.0113 16.2954C19.0113 17.1929 18.2838 17.9204 17.3863 17.9204C16.4889 17.9204 15.7614 17.1929 15.7614 16.2954C15.7614 15.398 16.4889 14.6704 17.3864 14.6704C18.2839 14.6704 19.0113 15.398 19.0113 16.2954ZM14.6705 17.409H10.3295V16.2727H14.6704L14.6705 17.409ZM21.1818 13.0681H3.81821V11.9318H21.1818L21.1818 13.0681Z" fill="#1BC866"/>
</svg>
