<svg width="149" height="28" viewBox="0 0 149 28" fill="none" xmlns="http://www.w3.org/2000/svg">
<rect x="1" y="1" width="147" height="26" rx="9" stroke="#1BC866" stroke-width="2"/>
<path d="M19.6936 8.119H21.3446V20.157H19.6936V8.119ZM18.1206 12.76H20.1226V14.138H18.1206V12.76ZM17.0026 8.327H18.6146V19.585H17.0026V8.327ZM11.5036 9.445H13.2326V16.4H11.5036V9.445ZM11.5036 15.75H12.3356C13.4926 15.75 14.8446 15.685 16.3396 15.399L16.5086 16.881C14.9356 17.167 13.5576 17.232 12.3356 17.232H11.5036V15.75ZM30.2466 9.458H31.7416V9.809C31.7416 11.928 30.0126 13.657 26.9576 14.073L26.3206 12.721C28.9726 12.396 30.2466 11.044 30.2466 9.809V9.458ZM30.7406 9.458H32.2356V9.809C32.2356 11.044 33.5096 12.396 36.1616 12.721L35.5376 14.073C32.4696 13.657 30.7406 11.928 30.7406 9.809V9.458ZM30.3376 15.75H32.0536V20.17H30.3376V15.75ZM25.8006 14.762H36.6816V16.14H25.8006V14.762ZM26.7626 8.73H35.6936V10.095H26.7626V8.73ZM43.6486 10.134H46.7166V11.499H43.6486V10.134ZM43.6486 12.721H46.7686V14.086H43.6486V12.721ZM46.0926 8.132H47.8216V17.011H46.0926V8.132ZM39.8526 18.571H48.0816V19.949H39.8526V18.571ZM39.8526 16.14H41.5946V19.364H39.8526V16.14ZM38.2536 8.912H39.9696V10.745H42.2576V8.912H43.9476V15.126H38.2536V8.912ZM39.9696 12.058V13.761H42.2576V12.058H39.9696ZM59.0245 11.031H61.3125V12.435H59.0245V11.031ZM60.8445 8.119H62.5735V15.269H60.8445V8.119ZM58.4915 15.529C61.0395 15.529 62.6125 16.4 62.6125 17.856C62.6125 19.325 61.0395 20.17 58.4915 20.17C55.9435 20.17 54.3705 19.325 54.3705 17.856C54.3705 16.4 55.9435 15.529 58.4915 15.529ZM58.4915 16.842C56.9315 16.842 56.0995 17.167 56.0995 17.856C56.0995 18.532 56.9315 18.857 58.4915 18.857C60.0645 18.857 60.8965 18.532 60.8965 17.856C60.8965 17.167 60.0645 16.842 58.4915 16.842ZM55.2805 9.328H56.6845V10.082C56.6845 12.383 55.6185 14.489 53.3175 15.269L52.4335 13.904C54.4225 13.228 55.2805 11.629 55.2805 10.082V9.328ZM55.6445 9.328H57.0355V10.082C57.0355 11.499 57.8545 12.968 59.7525 13.605L58.9075 14.97C56.6715 14.229 55.6445 12.227 55.6445 10.082V9.328ZM52.9015 8.847H59.3755V10.225H52.9015V8.847ZM64.4575 15.178H75.3645V16.543H64.4575V15.178ZM66.9665 15.893H68.7085V20.157H66.9665V15.893ZM71.1265 15.893H72.8685V20.157H71.1265V15.893ZM65.7055 8.483H74.1035V12.006H67.4865V13.878H65.7315V10.732H72.3485V9.861H65.7055V8.483ZM65.7315 12.955H74.4025V14.32H65.7315V12.955ZM79.0945 9.458H80.5115V10.212C80.5115 12.513 79.4325 14.58 77.1055 15.347L76.2475 13.982C78.2495 13.319 79.0945 11.746 79.0945 10.212V9.458ZM79.4455 9.458H80.8495V10.212C80.8495 11.616 81.6555 12.994 83.5925 13.579L82.7735 14.931C80.4855 14.242 79.4455 12.357 79.4455 10.212V9.458ZM76.7025 8.925H83.2025V10.303H76.7025V8.925ZM84.1645 8.119H85.8935V15.256H84.1645V8.119ZM85.4125 10.888H87.4925V12.305H85.4125V10.888ZM81.9675 15.477C84.4635 15.477 86.0365 16.348 86.0365 17.817C86.0365 19.286 84.4635 20.157 81.9675 20.157C79.4585 20.157 77.8855 19.286 77.8855 17.817C77.8855 16.348 79.4585 15.477 81.9675 15.477ZM81.9675 16.829C80.4335 16.829 79.6015 17.141 79.6015 17.817C79.6015 18.493 80.4335 18.831 81.9675 18.831C83.5015 18.831 84.3205 18.493 84.3205 17.817C84.3205 17.141 83.5015 16.829 81.9675 16.829ZM93.8984 13.618H95.6274V15.347H93.8984V13.618ZM98.9944 8.132H100.723V16.322H98.9944V8.132ZM100.112 11.564H102.231V12.981H100.112V11.564ZM91.2204 16.088L91.0254 14.749C93.1834 14.749 96.0304 14.736 98.4614 14.437L98.5914 15.62C96.0824 16.049 93.3264 16.075 91.2204 16.088ZM92.5594 16.803H100.723V20.157H98.9944V18.129H92.5594V16.803ZM91.3374 9.003H98.1624V10.238H91.3374V9.003ZM94.7564 10.524C96.5244 10.524 97.6814 11.213 97.6814 12.318C97.6814 13.423 96.5244 14.112 94.7564 14.112C92.9754 14.112 91.8184 13.423 91.8184 12.318C91.8184 11.213 92.9754 10.524 94.7564 10.524ZM94.7564 11.655C93.9374 11.655 93.4564 11.863 93.4564 12.318C93.4564 12.747 93.9374 12.981 94.7564 12.981C95.5624 12.981 96.0434 12.747 96.0434 12.318C96.0434 11.863 95.5624 11.655 94.7564 11.655ZM93.8984 8.028H95.6274V9.562H93.8984V8.028ZM111.395 8.132H113.137V16.777H111.395V8.132ZM105.116 18.571H113.436V19.949H105.116V18.571ZM105.116 15.906H106.845V19.13H105.116V15.906ZM106.585 8.886C108.431 8.886 109.848 10.16 109.848 11.941C109.848 13.709 108.431 14.996 106.585 14.996C104.739 14.996 103.309 13.709 103.309 11.941C103.309 10.16 104.739 8.886 106.585 8.886ZM106.585 10.381C105.688 10.381 104.999 10.953 104.999 11.941C104.999 12.916 105.688 13.488 106.585 13.488C107.469 13.488 108.158 12.916 108.158 11.941C108.158 10.953 107.469 10.381 106.585 10.381ZM122.808 8.119H124.524V20.157H122.808V8.119ZM124.134 12.812H126.266V14.255H124.134V12.812ZM115.034 9.9H122.041V11.278H115.034V9.9ZM118.557 11.954C120.312 11.954 121.612 13.15 121.612 14.827C121.612 16.504 120.312 17.7 118.557 17.7C116.802 17.7 115.502 16.504 115.502 14.827C115.502 13.15 116.802 11.954 118.557 11.954ZM118.557 13.358C117.738 13.358 117.153 13.904 117.153 14.827C117.153 15.75 117.738 16.296 118.557 16.296C119.376 16.296 119.961 15.75 119.961 14.827C119.961 13.904 119.376 13.358 118.557 13.358ZM117.686 8.314H119.415V10.42H117.686V8.314ZM135.339 8.119H137.081V20.157H135.339V8.119ZM131.79 9.367H133.506C133.506 13.046 132.258 16.062 127.981 18.129L127.084 16.751C130.542 15.087 131.79 12.903 131.79 9.679V9.367ZM127.721 9.367H132.609V10.732H127.721V9.367Z" fill="#1BC866"/>
</svg>
