<svg width="340" height="53" viewBox="0 0 340 53" fill="none" xmlns="http://www.w3.org/2000/svg">
<rect width="340" height="53" rx="20" fill="white"/>
<ellipse cx="35.3319" cy="34.0718" rx="7.23463" ry="11.6629" transform="rotate(165 35.3319 34.0718)" fill="url(#paint0_linear_89_324)"/>
<ellipse cx="7.0577" cy="11.9602" rx="7.0577" ry="11.9602" transform="matrix(0.27283 -0.962062 0.969527 0.244986 11.137 26.3542)" fill="url(#paint1_linear_89_324)"/>
<ellipse cx="7.0577" cy="11.9602" rx="7.0577" ry="11.9602" transform="matrix(0.717309 0.696755 -0.717142 0.696927 44.6294 5.43567)" fill="url(#paint2_linear_89_324)"/>
<path d="M146.403 19.24H149.043V37.82H146.403V19.24ZM142.203 25.76H147.163V27.9H142.203V25.76ZM134.183 20.7H136.823V25.18H140.463V20.7H143.083V33.46H134.183V20.7ZM136.823 27.24V31.32H140.463V27.24H136.823ZM158.782 20.32H161.102V21.66C161.102 25.68 158.242 29.24 153.442 30.18L152.302 27.98C156.482 27.26 158.782 24.32 158.782 21.66V20.32ZM159.322 20.32H161.622V21.66C161.622 24.38 163.902 27.26 168.102 27.98L166.962 30.18C162.162 29.24 159.322 25.74 159.322 21.66V20.32ZM151.922 33.36H168.682V35.52H151.922V33.36ZM171.02 31.44H172.58C175.7 31.44 178.08 31.4 180.84 30.96L181.08 33.08C178.28 33.52 175.76 33.6 172.58 33.6H171.02V31.44ZM171.02 20.8H179.72V22.96H173.7V32.14H171.02V20.8ZM173.06 25.94H179.46V28.02H173.06V25.94ZM182.14 19.26H184.82V37.78H182.14V19.26ZM184.22 26.28H187.5V28.48H184.22V26.28ZM189.618 20.92H198.518V33.38H189.618V20.92ZM195.918 23H192.238V31.28H195.918V23ZM201.398 19.24H204.078V37.82H201.398V19.24Z" fill="black"/>
<defs>
<linearGradient id="paint0_linear_89_324" x1="35.3319" y1="22.4089" x2="35.3319" y2="45.7347" gradientUnits="userSpaceOnUse">
<stop stop-color="#1F85EA"/>
<stop offset="1" stop-color="white"/>
</linearGradient>
<linearGradient id="paint1_linear_89_324" x1="7.0577" y1="0" x2="7.0577" y2="23.9205" gradientUnits="userSpaceOnUse">
<stop stop-color="#1BC866"/>
<stop offset="1" stop-color="#D9D9D9" stop-opacity="0"/>
</linearGradient>
<linearGradient id="paint2_linear_89_324" x1="7.0577" y1="0" x2="7.0577" y2="23.9205" gradientUnits="userSpaceOnUse">
<stop stop-color="#FF4123"/>
<stop offset="1" stop-color="#D9D9D9" stop-opacity="0"/>
</linearGradient>
</defs>
</svg>
