<svg width="246" height="43" viewBox="0 0 246 43" fill="none" xmlns="http://www.w3.org/2000/svg">
<path d="M35.1419 0.479999H36.7419V18.56H35.1419V0.479999ZM32.1019 7.84H35.5819V9.2H32.1019V7.84ZM31.0419 0.879999H32.6019V17.64H31.0419V0.879999ZM22.2819 2.66H23.9419V13.1H22.2819V2.66ZM22.2819 12.44H23.4419C25.3019 12.44 27.3819 12.32 29.7419 11.86L29.9219 13.3C27.4619 13.78 25.3819 13.88 23.4419 13.88H22.2819V12.44ZM52.3533 2.26H53.7933V3.02C53.7933 6.26 50.3533 8.64 46.7133 9.26L46.0733 7.94C49.2533 7.48 52.3533 5.4 52.3533 3.02V2.26ZM52.7733 2.26H54.1933V3.02C54.1933 5.4 57.3133 7.48 60.4733 7.94L59.8533 9.26C56.1933 8.64 52.7733 6.26 52.7733 3.02V2.26ZM52.4133 11.66H54.0533V18.56H52.4133V11.66ZM45.1133 10.78H61.4533V12.14H45.1133V10.78ZM46.6333 1.6H59.8733V2.94H46.6333V1.6ZM72.1317 3.8H77.3517V5.14H72.1317V3.8ZM72.1317 7.7H77.3917V9.04H72.1317V7.7ZM76.7117 0.499999H78.3717V13.88H76.7117V0.499999ZM66.7517 16.8H78.8117V18.16H66.7517V16.8ZM66.7517 12.58H68.4117V17.5H66.7517V12.58ZM64.3917 1.68H66.0317V4.88H70.9317V1.68H72.5517V10.8H64.3917V1.68ZM66.0317 6.18V9.44H70.9317V6.18H66.0317ZM96.8431 5.16H100.923V6.54H96.8431V5.16ZM100.403 0.479999H102.063V11.26H100.403V0.479999ZM96.1231 11.8C99.8431 11.8 102.143 13.06 102.143 15.18C102.143 17.32 99.8431 18.54 96.1231 18.54C92.3831 18.54 90.0831 17.32 90.0831 15.18C90.0831 13.06 92.3831 11.8 96.1231 11.8ZM96.1231 13.1C93.4031 13.1 91.7431 13.86 91.7431 15.18C91.7431 16.48 93.4031 17.24 96.1231 17.24C98.8431 17.24 100.503 16.48 100.503 15.18C100.503 13.86 98.8431 13.1 96.1231 13.1ZM91.8031 2.3H93.1631V3.76C93.1631 7.1 91.1231 9.96 88.1231 11.08L87.2631 9.76C89.9431 8.78 91.8031 6.36 91.8031 3.76V2.3ZM92.1231 2.3H93.4631V3.76C93.4631 6.1 95.2231 8.34 97.8431 9.26L97.0031 10.58C94.0631 9.52 92.1231 6.8 92.1231 3.76V2.3ZM87.7631 1.8H97.4231V3.16H87.7631V1.8ZM105.582 11.24H121.982V12.6H105.582V11.24ZM109.822 11.98H111.502V18.56H109.822V11.98ZM116.042 11.98H117.702V18.56H116.042V11.98ZM107.542 1.18H119.982V5.84H109.262V8.94H107.582V4.56H118.322V2.52H107.542V1.18ZM107.582 8.06H120.402V9.4H107.582V8.06ZM128.44 2.42H129.8V3.88C129.8 7.2 127.8 9.98 124.76 11.08L123.92 9.76C126.64 8.8 128.44 6.46 128.44 3.88V2.42ZM128.74 2.42H130.1V3.86C130.1 6.22 131.82 8.34 134.48 9.22L133.68 10.52C130.66 9.52 128.74 6.94 128.74 3.86V2.42ZM124.42 1.82H134.08V3.18H124.42V1.82ZM136.36 0.479999H138.02V11.38H136.36V0.479999ZM137.56 5.06H140.7V6.46H137.56V5.06ZM132.26 11.86C135.94 11.86 138.2 13.08 138.2 15.18C138.2 17.3 135.94 18.52 132.26 18.52C128.58 18.52 126.32 17.3 126.32 15.18C126.32 13.08 128.58 11.86 132.26 11.86ZM132.26 13.2C129.58 13.2 127.94 13.92 127.94 15.18C127.94 16.46 129.58 17.22 132.26 17.22C134.94 17.22 136.58 16.46 136.58 15.18C136.58 13.92 134.94 13.2 132.26 13.2ZM150.558 0.779999C154.538 0.779999 156.918 1.9 156.918 3.92C156.918 5.94 154.538 7.06 150.558 7.06C146.558 7.06 144.198 5.94 144.198 3.92C144.198 1.9 146.558 0.779999 150.558 0.779999ZM150.558 2.04C147.598 2.04 145.898 2.72 145.898 3.92C145.898 5.12 147.598 5.8 150.558 5.8C153.498 5.8 155.198 5.12 155.198 3.92C155.198 2.72 153.498 2.04 150.558 2.04ZM142.378 8.26H158.718V9.6H142.378V8.26ZM144.358 11.14H156.638V15.22H146.038V17.42H144.398V14.02H154.998V12.42H144.358V11.14ZM144.398 17.06H157.178V18.36H144.398V17.06ZM168.19 6.54H180.57V7.9H168.19V6.54ZM166.09 10.62H182.47V11.98H166.09V10.62ZM173.39 11.36H175.03V18.56H173.39V11.36ZM168.19 1.38H169.85V7.22H168.19V1.38ZM184.488 14.9H200.868V16.3H184.488V14.9ZM186.468 1.86H198.848V7.34H188.168V10.96H186.528V6.02H197.208V3.22H186.468V1.86ZM186.528 10.26H199.268V11.62H186.528V10.26ZM211.547 3.66H216.607V5.02H211.547V3.66ZM211.547 7.52H216.647V8.9H211.547V7.52ZM203.707 2.04H211.967V10.52H203.707V2.04ZM210.327 3.38H205.327V9.18H210.327V3.38ZM216.087 0.499999H217.747V13.7H216.087V0.499999ZM206.127 16.8H218.187V18.16H206.127V16.8ZM206.127 12.5H207.787V17.42H206.127V12.5ZM13.324 24.46H14.964V42.58H13.324V24.46ZM8.54398 31.18H13.804V32.54H8.54398V31.18ZM0.803984 25.9H2.44398V30.6H7.46398V25.9H9.10399V38.04H0.803984V25.9ZM2.44398 31.92V36.66H7.46398V31.92H2.44398ZM25.7224 25.72H27.1624V27.1C27.1624 31.04 23.5024 34.1 19.8824 34.92L19.1424 33.54C22.3224 32.94 25.7224 30.18 25.7224 27.1V25.72ZM26.0224 25.72H27.4624V27.1C27.4624 30.2 30.8824 32.94 34.0424 33.54L33.3024 34.92C29.7024 34.1 26.0224 31.06 26.0224 27.1V25.72ZM18.4824 38.76H34.8624V40.12H18.4824V38.76ZM49.4938 24.78H50.9138V25.58C50.9138 28.78 47.4338 31.08 43.7338 31.68L43.1138 30.36C46.3538 29.92 49.4938 27.92 49.4938 25.58V24.78ZM49.7538 24.78H51.1738V25.58C51.1738 27.88 54.3538 29.92 57.5538 30.36L56.9338 31.68C53.2538 31.08 49.7538 28.72 49.7538 25.58V24.78ZM42.1538 33.1H58.4938V34.46H42.1538V33.1ZM50.3138 36.12C54.1938 36.12 56.5138 37.28 56.5138 39.32C56.5138 41.4 54.1938 42.54 50.3138 42.54C46.4338 42.54 44.1138 41.4 44.1138 39.32C44.1138 37.28 46.4338 36.12 50.3138 36.12ZM50.3138 37.4C47.4938 37.4 45.7938 38.12 45.7938 39.32C45.7938 40.56 47.4938 41.26 50.3138 41.26C53.1538 41.26 54.8338 40.56 54.8338 39.32C54.8338 38.12 53.1538 37.4 50.3138 37.4ZM64.9723 28.78H66.2723V30.32C66.2723 34.14 64.1923 37.66 61.3323 39.08L60.3923 37.8C63.0523 36.52 64.9723 33.44 64.9723 30.32V28.78ZM65.2923 28.78H66.5923V30.32C66.5923 33.24 68.4123 36.18 70.9923 37.46L70.0723 38.74C67.2523 37.34 65.2923 33.92 65.2923 30.32V28.78ZM60.8923 27.62H70.5923V28.96H60.8923V27.62ZM64.9523 24.8H66.5923V28.36H64.9523V24.8ZM72.7923 24.48H74.4723V42.56H72.7923V24.48ZM74.0723 31.9H77.4323V33.28H74.0723V31.9ZM92.6107 24.5H94.1907V33.98H92.6107V24.5ZM89.0707 24.86H90.6507V33.86H89.0707V24.86ZM86.2907 28.58H89.7107V29.92H86.2907V28.58ZM82.2707 34.86H94.1907V39.14H83.9707V41.84H82.3107V37.9H92.5707V36.18H82.2707V34.86ZM82.3107 41.04H94.8907V42.36H82.3107V41.04ZM79.7707 25.52H81.3307V27.9H85.1907V25.52H86.7707V33.14H79.7707V25.52ZM81.3307 29.18V31.84H85.1907V29.18H81.3307ZM105.529 24.78C109.509 24.78 111.889 25.9 111.889 27.92C111.889 29.94 109.509 31.06 105.529 31.06C101.529 31.06 99.1691 29.94 99.1691 27.92C99.1691 25.9 101.529 24.78 105.529 24.78ZM105.529 26.04C102.569 26.04 100.869 26.72 100.869 27.92C100.869 29.12 102.569 29.8 105.529 29.8C108.469 29.8 110.169 29.12 110.169 27.92C110.169 26.72 108.469 26.04 105.529 26.04ZM97.3491 32.26H113.689V33.6H97.3491V32.26ZM99.3291 35.14H111.609V39.22H101.009V41.42H99.3691V38.02H109.969V36.42H99.3291V35.14ZM99.3691 41.06H112.149V42.36H99.3691V41.06ZM128.381 32.98H130.021V35.76H128.381V32.98ZM129.221 24.7C133.201 24.7 135.581 25.8 135.581 27.82C135.581 29.84 133.201 30.96 129.221 30.96C125.221 30.96 122.861 29.84 122.861 27.82C122.861 25.8 125.221 24.7 129.221 24.7ZM129.221 25.96C126.261 25.96 124.561 26.64 124.561 27.82C124.561 29.02 126.261 29.7 129.221 29.7C132.161 29.7 133.861 29.02 133.861 27.82C133.861 26.64 132.161 25.96 129.221 25.96ZM121.041 32.12H137.381V33.48H121.041V32.12ZM123.021 35.14H135.301V39.22H124.701V41.42H123.061V38.02H133.661V36.42H123.021V35.14ZM123.061 41.06H135.841V42.36H123.061V41.06ZM140.359 31.98H141.819C145.339 31.98 147.639 31.9 150.439 31.46L150.599 32.76C147.739 33.22 145.399 33.3 141.819 33.3H140.359V31.98ZM140.319 25.34H148.579V29.82H141.979V32.62H140.359V28.6H146.959V26.62H140.319V25.34ZM142.579 34.8H154.279V39.08H144.279V41.64H142.619V37.86H152.599V36.1H142.579V34.8ZM142.619 41.06H154.879V42.36H142.619V41.06ZM152.599 24.48H154.279V33.98H152.599V24.48ZM170.45 25.12H171.91V26.12C171.91 29.58 168.39 32.06 164.63 32.7L163.97 31.36C167.27 30.86 170.45 28.7 170.45 26.12V25.12ZM170.75 25.12H172.19V26.12C172.19 28.64 175.41 30.86 178.67 31.36L178.01 32.7C174.29 32.06 170.75 29.54 170.75 26.12V25.12ZM170.45 35.68H172.09V42.56H170.45V35.68ZM163.15 34.66H179.49V36.04H163.15V34.66ZM191.342 35.6H192.622V36.58C192.622 38.94 191.142 41.32 188.542 42.32L187.702 41.08C189.982 40.26 191.342 38.32 191.342 36.58V35.6ZM191.702 35.6H192.942V36.58C192.942 38.4 194.022 40.34 196.182 41.22L195.482 42.48C192.882 41.46 191.702 38.98 191.702 36.58V35.6ZM198.022 35.6H199.262V36.58C199.262 38.7 198.062 41.38 195.482 42.48L194.782 41.22C196.922 40.24 198.022 38.14 198.022 36.58V35.6ZM198.362 35.6H199.642V36.58C199.642 38.44 200.982 40.3 203.282 41.08L202.442 42.32C199.802 41.36 198.362 39.08 198.362 36.58V35.6ZM199.982 24.5H201.662V34.82H199.982V24.5ZM191.962 25.54C194.702 25.54 196.662 27.26 196.662 29.76C196.662 32.26 194.702 33.96 191.962 33.96C189.222 33.96 187.242 32.26 187.242 29.76C187.242 27.26 189.222 25.54 191.962 25.54ZM191.962 26.92C190.162 26.92 188.862 28.08 188.862 29.76C188.862 31.44 190.162 32.58 191.962 32.58C193.762 32.58 195.062 31.44 195.062 29.76C195.062 28.08 193.762 26.92 191.962 26.92ZM210.06 25.86C212.68 25.86 214.56 28.32 214.56 32.16C214.56 36.02 212.68 38.48 210.06 38.48C207.42 38.48 205.56 36.02 205.56 32.16C205.56 28.32 207.42 25.86 210.06 25.86ZM210.06 27.36C208.32 27.36 207.14 29.24 207.14 32.16C207.14 35.1 208.32 37.02 210.06 37.02C211.8 37.02 212.98 35.1 212.98 32.16C212.98 29.24 211.8 27.36 210.06 27.36ZM218.48 24.46H220.12V42.58H218.48V24.46ZM214.02 31.36H219.2V32.72H214.02V31.36ZM227.639 33.78H229.279V39.2H227.639V33.78ZM234.319 33.78H235.979V39.2H234.319V33.78ZM223.639 38.88H240.019V40.26H223.639V38.88ZM231.799 25.62C235.619 25.62 238.359 27.44 238.359 30.28C238.359 33.1 235.619 34.92 231.799 34.92C227.959 34.92 225.219 33.1 225.219 30.28C225.219 27.44 227.959 25.62 231.799 25.62ZM231.799 26.94C228.899 26.94 226.819 28.26 226.819 30.28C226.819 32.28 228.899 33.6 231.799 33.6C234.699 33.6 236.759 32.28 236.759 30.28C236.759 28.26 234.699 26.94 231.799 26.94ZM245.142 26.4545L244.958 36.8168H242.99L242.806 26.4545H245.142ZM243.977 41.1349C243.584 41.1349 243.248 40.9976 242.969 40.723C242.69 40.4437 242.552 40.1075 242.557 39.7145C242.552 39.3262 242.69 38.9948 242.969 38.7202C243.248 38.4408 243.584 38.3011 243.977 38.3011C244.361 38.3011 244.692 38.4408 244.972 38.7202C245.251 38.9948 245.393 39.3262 245.398 39.7145C245.393 39.9749 245.325 40.214 245.192 40.4318C245.064 40.6449 244.894 40.8153 244.681 40.9432C244.468 41.071 244.233 41.1349 243.977 41.1349Z" fill="black"/>
</svg>
