<svg width="321" height="88" viewBox="0 0 321 88" fill="none" xmlns="http://www.w3.org/2000/svg">
<g filter="url(#filter0_dd_14_61)">
<rect x="21" y="14" width="279" height="46" rx="23" fill="white"/>
<path d="M138.413 30.97C140.246 30.97 141.624 32.114 141.624 33.726C141.624 35.325 140.246 36.469 138.413 36.469C136.58 36.469 135.202 35.325 135.202 33.726C135.202 32.114 136.58 30.97 138.413 30.97ZM138.413 32.374C137.529 32.374 136.866 32.868 136.866 33.726C136.866 34.584 137.529 35.078 138.413 35.078C139.297 35.078 139.947 34.584 139.947 33.726C139.947 32.868 139.297 32.374 138.413 32.374ZM143.288 30.619H145.03V36.638H143.288V30.619ZM136.996 37.132H145.03V40.434H138.712V41.89H137.022V39.186H143.314V38.471H136.996V37.132ZM137.022 41.188H145.329V42.527H137.022V41.188ZM154.727 30.632H156.456V39.485H154.727V30.632ZM155.962 34.012H158.055V35.429H155.962V34.012ZM148.695 41.071H156.885V42.449H148.695V41.071ZM148.695 38.588H150.424V41.37H148.695V38.588ZM147.33 31.477H149.046V33.206H151.399V31.477H153.115V37.587H147.33V31.477ZM149.046 34.519V36.235H151.399V34.519H149.046ZM165.261 32.049H166.665V32.712C166.665 34.857 165.573 36.755 163.298 37.431L162.453 36.092C164.403 35.507 165.261 34.116 165.261 32.712V32.049ZM165.612 32.049H167.016V32.712C167.016 34.012 167.835 35.312 169.746 35.871L168.94 37.21C166.678 36.56 165.612 34.753 165.612 32.712V32.049ZM162.882 31.568H169.395V32.972H162.882V31.568ZM165.274 36.911H167.003V39.498H165.274V36.911ZM171.501 35.364H173.62V36.807H171.501V35.364ZM170.305 30.619H172.034V42.657H170.305V30.619ZM162.609 40.369L162.401 38.978C164.468 38.978 167.289 38.991 169.681 38.653L169.811 39.914C167.302 40.382 164.624 40.382 162.609 40.369ZM180.639 32.855H183.083V34.259H180.639V32.855ZM177.246 31.243H178.663V32.374C178.663 34.753 177.61 36.82 175.322 37.613L174.412 36.248C176.427 35.585 177.246 33.999 177.246 32.374V31.243ZM177.597 31.243H178.988V32.478C178.988 33.973 179.794 35.442 181.679 36.053L180.782 37.405C178.598 36.651 177.597 34.701 177.597 32.478V31.243ZM176.362 38.328H184.565V42.657H182.836V39.693H176.362V38.328ZM182.836 30.619H184.565V37.782H182.836V30.619Z" fill="#1BC866"/>
</g>
<defs>
<filter id="filter0_dd_14_61" x="0" y="0" width="321" height="88" filterUnits="userSpaceOnUse" color-interpolation-filters="sRGB">
<feFlood flood-opacity="0" result="BackgroundImageFix"/>
<feColorMatrix in="SourceAlpha" type="matrix" values="0 0 0 0 0 0 0 0 0 0 0 0 0 0 0 0 0 0 127 0" result="hardAlpha"/>
<feOffset dy="7"/>
<feGaussianBlur stdDeviation="10.5"/>
<feComposite in2="hardAlpha" operator="out"/>
<feColorMatrix type="matrix" values="0 0 0 0 0.145098 0 0 0 0 0.172549 0 0 0 0 0.380392 0 0 0 0.2 0"/>
<feBlend mode="normal" in2="BackgroundImageFix" result="effect1_dropShadow_14_61"/>
<feColorMatrix in="SourceAlpha" type="matrix" values="0 0 0 0 0 0 0 0 0 0 0 0 0 0 0 0 0 0 127 0" result="hardAlpha"/>
<feOffset dy="3"/>
<feGaussianBlur stdDeviation="4"/>
<feComposite in2="hardAlpha" operator="out"/>
<feColorMatrix type="matrix" values="0 0 0 0 0.533333 0 0 0 0 0.564706 0 0 0 0 0.760784 0 0 0 0.25 0"/>
<feBlend mode="normal" in2="effect1_dropShadow_14_61" result="effect2_dropShadow_14_61"/>
<feBlend mode="normal" in="SourceGraphic" in2="effect2_dropShadow_14_61" result="shape"/>
</filter>
</defs>
</svg>
