<svg width="88" height="34" viewBox="0 0 88 34" fill="none" xmlns="http://www.w3.org/2000/svg">
<rect y="0.687622" width="87.1875" height="32.6877" rx="16.3438" fill="#58D78F"/>
<path d="M13.2618 15.8636H14.2628C16.6028 15.8636 17.9808 15.8246 19.5538 15.5386L19.7358 16.8906C18.1238 17.1766 16.6678 17.2286 14.2628 17.2286H13.2618V15.8636ZM13.2618 11.4046H18.9168V12.7696H14.9908V16.4876H13.2618V11.4046ZM14.4578 13.6406H18.6568V14.9796H14.4578V13.6406ZM20.5678 10.8066H22.2968V17.4756H20.5678V10.8066ZM21.8158 13.3936H23.8958V14.8106H21.8158V13.3936ZM14.4318 17.9696H16.1478V18.9966H20.5808V17.9696H22.2968V22.7146H14.4318V17.9696ZM16.1478 20.3226V21.3366H20.5808V20.3226H16.1478ZM29.3418 11.0016H30.8238V11.3656C30.8238 13.5106 29.0428 15.2656 25.9488 15.6946L25.3118 14.3426C28.0158 14.0176 29.3418 12.6266 29.3418 11.3656V11.0016ZM29.6278 11.0016H31.1098V11.3656C31.1098 12.6266 32.4358 14.0176 35.1268 14.3426L34.5028 15.6946C31.4088 15.2656 29.6278 13.4976 29.6278 11.3656V11.0016ZM24.7788 16.3316H35.6598V17.6966H24.7788V16.3316ZM30.1998 18.4896C32.7998 18.4896 34.3728 19.2826 34.3728 20.6736C34.3728 22.0776 32.7998 22.8576 30.1998 22.8576C27.5868 22.8576 26.0138 22.0776 26.0138 20.6736C26.0138 19.2826 27.5868 18.4896 30.1998 18.4896ZM30.1998 19.7896C28.5878 19.7896 27.7688 20.0756 27.7688 20.6736C27.7688 21.2846 28.5878 21.5576 30.1998 21.5576C31.8118 21.5576 32.6308 21.2846 32.6308 20.6736C32.6308 20.0756 31.8118 19.7896 30.1998 19.7896ZM39.4418 12.7046H40.8068V14.0566C40.8068 16.7736 39.6628 19.5426 37.4528 20.5826L36.4778 19.2176C38.4668 18.2816 39.4418 16.0326 39.4418 14.0566V12.7046ZM39.8058 12.7046H41.1708V14.0566C41.1708 15.8766 42.1068 18.0086 44.0828 18.9186L43.1338 20.2836C40.9238 19.2566 39.8058 16.6176 39.8058 14.0566V12.7046ZM36.9458 11.9636H43.5498V13.3806H36.9458V11.9636ZM44.4338 10.8066H46.1758V22.8446H44.4338V10.8066ZM45.7858 15.3956H47.9178V16.8256H45.7858V15.3956ZM53.9467 18.4116H55.7147V22.8446H53.9467V18.4116ZM58.1067 18.4116H59.8747V22.8446H58.1067V18.4116ZM51.4897 17.5016H62.3967V18.8926H51.4897V17.5016ZM56.9107 11.2096C59.4847 11.2096 61.2657 12.2626 61.2657 13.9136C61.2657 15.5386 59.4847 16.5916 56.9107 16.5916C54.3497 16.5916 52.5687 15.5386 52.5687 13.9136C52.5687 12.2626 54.3497 11.2096 56.9107 11.2096ZM56.9107 12.5876C55.3377 12.5876 54.3367 13.0556 54.3367 13.9136C54.3367 14.7586 55.3377 15.2266 56.9107 15.2266C58.4967 15.2266 59.4847 14.7586 59.4847 13.9136C59.4847 13.0556 58.4967 12.5876 56.9107 12.5876ZM70.2477 13.4456H72.4577V14.8236H70.2477V13.4456ZM70.2217 15.8506H72.4187V17.2286H70.2217V15.8506ZM63.4877 11.8856H70.0917V13.2506H63.4877V11.8856ZM66.8677 13.6666C68.5187 13.6666 69.6887 14.5766 69.6887 15.9156C69.6887 17.2546 68.5187 18.1646 66.8677 18.1646C65.2167 18.1646 64.0467 17.2546 64.0467 15.9156C64.0467 14.5766 65.2167 13.6666 66.8677 13.6666ZM66.8677 14.9536C66.1397 14.9536 65.6587 15.2786 65.6587 15.9156C65.6587 16.5526 66.1397 16.8776 66.8677 16.8776C67.5827 16.8776 68.0897 16.5526 68.0897 15.9156C68.0897 15.2786 67.5827 14.9536 66.8677 14.9536ZM66.0097 10.7026H67.7387V12.8346H66.0097V10.7026ZM71.7947 10.8066H73.5237V18.4766H71.7947V10.8066ZM69.4547 18.6196C71.9897 18.6196 73.5757 19.4126 73.5757 20.7386C73.5757 22.0646 71.9897 22.8446 69.4547 22.8446C66.9067 22.8446 65.3337 22.0646 65.3337 20.7386C65.3337 19.4126 66.9067 18.6196 69.4547 18.6196ZM69.4547 19.9456C67.9727 19.9456 67.1537 20.1796 67.1537 20.7386C67.1537 21.2846 67.9727 21.5446 69.4547 21.5446C70.9367 21.5446 71.7427 21.2846 71.7427 20.7386C71.7427 20.1796 70.9367 19.9456 69.4547 19.9456Z" fill="white"/>
</svg>
