<svg width="243" height="53" viewBox="0 0 243 53" fill="none" xmlns="http://www.w3.org/2000/svg">
<path d="M10.04 5.544C13.952 5.544 17.12 8.208 17.12 11.832C17.12 15.48 13.952 18.144 10.04 18.144C6.152 18.144 2.96 15.48 2.96 11.832C2.96 8.208 6.152 5.544 10.04 5.544ZM10.04 8.256C7.784 8.256 6.008 9.648 6.008 11.832C6.008 14.04 7.784 15.456 10.04 15.456C12.296 15.456 14.072 14.04 14.072 11.832C14.072 9.648 12.296 8.256 10.04 8.256ZM32.1181 5.544C36.0301 5.544 39.1981 8.208 39.1981 11.832C39.1981 15.48 36.0301 18.144 32.1181 18.144C28.2301 18.144 25.0381 15.48 25.0381 11.832C25.0381 8.208 28.2301 5.544 32.1181 5.544ZM32.1181 8.256C29.8621 8.256 28.0861 9.648 28.0861 11.832C28.0861 14.04 29.8621 15.456 32.1181 15.456C34.3741 15.456 36.1501 14.04 36.1501 11.832C36.1501 9.648 34.3741 8.256 32.1181 8.256ZM54.1963 5.544C58.1083 5.544 61.2763 8.208 61.2763 11.832C61.2763 15.48 58.1083 18.144 54.1963 18.144C50.3083 18.144 47.1163 15.48 47.1163 11.832C47.1163 8.208 50.3083 5.544 54.1963 5.544ZM54.1963 8.256C51.9403 8.256 50.1643 9.648 50.1643 11.832C50.1643 14.04 51.9403 15.456 54.1963 15.456C56.4523 15.456 58.2283 14.04 58.2283 11.832C58.2283 9.648 56.4523 8.256 54.1963 8.256ZM81.4584 0.912H84.6744V13.368H81.4584V0.912ZM67.4664 2.184H70.6344V11.352H67.4664V2.184ZM67.4664 9.672H69.3864C73.2504 9.672 76.3944 9.456 79.6584 8.76L80.0424 11.328C76.6584 12.072 73.3704 12.312 69.3864 12.312H67.4664V9.672ZM69.8904 14.304H84.6744V22.896H69.8904V14.304ZM81.5304 16.8H73.0104V20.376H81.5304V16.8ZM88.2725 12.24H108.361V14.784H88.2725V12.24ZM90.6965 20.208H106.105V22.752H90.6965V20.208ZM90.6965 16.272H93.8885V21.024H90.6965V16.272ZM98.3285 1.56C103.153 1.56 106.369 3.312 106.369 6.144C106.369 8.976 103.153 10.728 98.3285 10.728C93.4805 10.728 90.2885 8.976 90.2885 6.144C90.2885 3.312 93.4805 1.56 98.3285 1.56ZM98.3285 4.104C95.3285 4.104 93.5765 4.8 93.5765 6.144C93.5765 7.512 95.3285 8.184 98.3285 8.184C101.329 8.184 103.081 7.512 103.081 6.144C103.081 4.8 101.329 4.104 98.3285 4.104ZM6.056 31.448C9.368 31.448 11.792 34.52 11.792 39.368C11.792 44.264 9.368 47.336 6.056 47.336C2.72 47.336 0.32 44.264 0.32 39.368C0.32 34.52 2.72 31.448 6.056 31.448ZM6.056 34.352C4.448 34.352 3.368 36.104 3.368 39.368C3.368 42.68 4.448 44.456 6.056 44.456C7.688 44.456 8.744 42.68 8.744 39.368C8.744 36.104 7.688 34.352 6.056 34.352ZM15.44 29.888H18.608V52.184H15.44V29.888ZM10.856 37.904H16.784V40.472H10.856V37.904ZM25.4461 49.208H41.4061V51.752H25.4461V49.208ZM25.4461 44.648H28.6621V50.792H25.4461V44.648ZM37.6861 29.936H40.8541V46.016H37.6861V29.936ZM34.7581 35.768H40.4221V38.312H34.7581V35.768ZM22.3501 40.352H23.4781C25.3501 40.352 26.6701 40.304 28.3021 39.968L28.5421 42.536C26.8141 42.896 25.4701 42.896 23.4781 42.896H22.3501V40.352ZM22.3501 31.592H28.1821V34.136H25.4941V40.832H22.3501V31.592ZM29.2381 40.352H30.4381C33.2461 40.352 34.4701 40.304 35.9101 39.944L36.1741 42.512C34.6381 42.848 33.3661 42.896 30.4381 42.896H29.2381V40.352ZM29.2381 31.592H35.4061V34.136H32.3581V40.808H29.2381V31.592ZM54.3125 32.552H56.9045V33.776C56.9045 37.736 54.8885 41.24 50.6885 42.488L49.1285 40.016C52.7285 38.936 54.3125 36.368 54.3125 33.776V32.552ZM54.9605 32.552H57.5525V33.776C57.5525 36.176 59.0645 38.576 62.5925 39.608L61.1045 42.08C56.9285 40.88 54.9605 37.544 54.9605 33.776V32.552ZM49.9205 31.664H61.9445V34.256H49.9205V31.664ZM54.3365 41.528H57.5285V46.304H54.3365V41.528ZM65.8325 38.672H69.7445V41.336H65.8325V38.672ZM63.6245 29.912H66.8165V52.136H63.6245V29.912ZM49.4165 47.912L49.0325 45.344C52.8485 45.344 58.0565 45.368 62.4725 44.744L62.7125 47.072C58.0805 47.936 53.1365 47.936 49.4165 47.912ZM82.7026 34.04H87.2146V36.632H82.7026V34.04ZM76.4386 31.064H79.0546V33.152C79.0546 37.544 77.1106 41.36 72.8866 42.824L71.2066 40.304C74.9266 39.08 76.4386 36.152 76.4386 33.152V31.064ZM77.0866 31.064H79.6546V33.344C79.6546 36.104 81.1426 38.816 84.6226 39.944L82.9666 42.44C78.9346 41.048 77.0866 37.448 77.0866 33.344V31.064ZM74.8066 44.144H89.9506V52.136H86.7586V46.664H74.8066V44.144ZM86.7586 29.912H89.9506V43.136H86.7586V29.912ZM99.401 39.248H101.249C105.569 39.248 108.113 39.176 111.017 38.648L111.353 41.144C108.377 41.672 105.689 41.768 101.249 41.768H99.401V39.248ZM99.401 31.016H109.841V33.536H102.593V40.4H99.401V31.016ZM101.609 35.144H109.361V37.616H101.609V35.144ZM112.889 29.912H116.081V42.224H112.889V29.912ZM115.193 34.688H119.033V37.304H115.193V34.688ZM101.561 43.136H104.729V45.032H112.913V43.136H116.081V51.896H101.561V43.136ZM104.729 47.48V49.352H112.913V47.48H104.729ZM129.087 30.272H131.823V30.944C131.823 34.904 128.535 38.144 122.823 38.936L121.647 36.44C126.639 35.84 129.087 33.272 129.087 30.944V30.272ZM129.615 30.272H132.351V30.944C132.351 33.272 134.799 35.84 139.767 36.44L138.615 38.936C132.903 38.144 129.615 34.88 129.615 30.944V30.272ZM120.663 40.112H140.751V42.632H120.663V40.112ZM130.671 44.096C135.471 44.096 138.375 45.56 138.375 48.128C138.375 50.72 135.471 52.16 130.671 52.16C125.847 52.16 122.943 50.72 122.943 48.128C122.943 45.56 125.847 44.096 130.671 44.096ZM130.671 46.496C127.695 46.496 126.183 47.024 126.183 48.128C126.183 49.256 127.695 49.76 130.671 49.76C133.647 49.76 135.159 49.256 135.159 48.128C135.159 47.024 133.647 46.496 130.671 46.496ZM147.733 33.416H150.253V35.912C150.253 40.928 148.141 46.04 144.061 47.96L142.261 45.44C145.933 43.712 147.733 39.56 147.733 35.912V33.416ZM148.405 33.416H150.925V35.912C150.925 39.272 152.653 43.208 156.301 44.888L154.549 47.408C150.469 45.512 148.405 40.64 148.405 35.912V33.416ZM143.125 32.048H155.317V34.664H143.125V32.048ZM156.949 29.912H160.165V52.136H156.949V29.912ZM159.445 38.384H163.381V41.024H159.445V38.384ZM180.083 29.936H183.299V45.896H180.083V29.936ZM168.491 49.208H183.851V51.752H168.491V49.208ZM168.491 44.288H171.683V50.24H168.491V44.288ZM171.203 31.328C174.611 31.328 177.227 33.68 177.227 36.968C177.227 40.232 174.611 42.608 171.203 42.608C167.795 42.608 165.155 40.232 165.155 36.968C165.155 33.68 167.795 31.328 171.203 31.328ZM171.203 34.088C169.547 34.088 168.275 35.144 168.275 36.968C168.275 38.768 169.547 39.824 171.203 39.824C172.835 39.824 174.107 38.768 174.107 36.968C174.107 35.144 172.835 34.088 171.203 34.088ZM201.106 29.888H204.322V52.112H201.106V29.888ZM203.482 38.384H207.394V41H203.482V38.384ZM195.274 32.192H198.394C198.394 38.864 195.85 44.576 188.458 48.296L186.682 45.872C192.514 42.848 195.274 38.768 195.274 32.744V32.192ZM187.906 32.192H196.906V34.76H187.906V32.192ZM213.416 41.192H216.584V47.432H213.416V41.192ZM221.48 41.192H224.672V47.432H221.48V41.192ZM209 46.976H229.112V49.568H209V46.976ZM219.032 30.992C223.808 30.992 227.336 33.344 227.336 36.968C227.336 40.592 223.808 42.92 219.032 42.92C214.232 42.92 210.728 40.592 210.728 36.968C210.728 33.344 214.232 30.992 219.032 30.992ZM219.032 33.488C215.936 33.488 213.872 34.76 213.872 36.968C213.872 39.152 215.936 40.448 219.032 40.448C222.128 40.448 224.192 39.152 224.192 36.968C224.192 34.76 222.128 33.488 219.032 33.488ZM234.696 44.6562V44.3068C234.696 43.3409 234.776 42.571 234.935 41.9972C235.099 41.4233 235.338 40.9631 235.651 40.6165C235.963 40.2642 236.344 39.9432 236.793 39.6534C237.151 39.4261 237.469 39.196 237.747 38.9631C238.031 38.7244 238.256 38.4687 238.42 38.196C238.585 37.9233 238.668 37.6136 238.668 37.267C238.668 36.9318 238.588 36.6364 238.429 36.3807C238.27 36.125 238.051 35.929 237.773 35.7926C237.5 35.6506 237.196 35.5795 236.861 35.5795C236.526 35.5795 236.21 35.6562 235.915 35.8097C235.625 35.9631 235.386 36.1818 235.199 36.4659C235.017 36.7443 234.923 37.0824 234.918 37.4801H230.997C231.014 36.2869 231.29 35.3097 231.824 34.5483C232.364 33.7869 233.077 33.2244 233.963 32.8608C234.849 32.4915 235.827 32.3068 236.895 32.3068C238.065 32.3068 239.105 32.4886 240.014 32.8523C240.929 33.2159 241.648 33.7528 242.17 34.4631C242.693 35.1733 242.955 36.0426 242.955 37.071C242.955 37.7472 242.841 38.3437 242.614 38.8608C242.386 39.3778 242.068 39.8352 241.659 40.233C241.256 40.625 240.781 40.983 240.236 41.3068C239.81 41.5568 239.455 41.8182 239.17 42.0909C238.892 42.3636 238.682 42.6761 238.54 43.0284C238.398 43.375 238.327 43.8011 238.327 44.3068V44.6562H234.696ZM236.58 50.2472C235.966 50.2472 235.44 50.0312 235.003 49.5994C234.571 49.1676 234.358 48.6449 234.364 48.0312C234.358 47.429 234.571 46.9148 235.003 46.4886C235.44 46.0568 235.966 45.8409 236.58 45.8409C237.165 45.8409 237.679 46.0568 238.122 46.4886C238.565 46.9148 238.79 47.429 238.795 48.0312C238.79 48.4403 238.682 48.8125 238.472 49.1477C238.267 49.483 237.997 49.75 237.662 49.9489C237.332 50.1477 236.972 50.2472 236.58 50.2472Z" fill="black"/>
</svg>
