<svg width="321" height="87" viewBox="0 0 321 87" fill="none" xmlns="http://www.w3.org/2000/svg">
<g filter="url(#filter0_dd_14_63)">
<rect x="21" y="14" width="279" height="45" rx="22.5" fill="white"/>
<path d="M124.086 31.133H131.704V32.524H124.086V31.133ZM123.033 39.31H133.914V40.714H123.033V39.31ZM125.308 35.514H127.024V39.752H125.308V35.514ZM131.197 31.133H132.939V32.316C132.939 33.772 132.939 35.436 132.51 37.88L130.794 37.711C131.197 35.423 131.197 33.733 131.197 32.316V31.133ZM128.285 35.514H129.988V39.752H128.285V35.514ZM134.966 36.32H145.86V37.672H134.966V36.32ZM139.542 35.033H141.271V36.814H139.542V35.033ZM136.318 34.279H144.703V35.592H136.318V34.279ZM136.318 30.418H144.612V31.731H138.034V35.02H136.318V30.418ZM137.553 32.368H144.339V33.629H137.553V32.368ZM140.4 38.205C143.039 38.205 144.573 38.907 144.573 40.181C144.573 41.468 143.039 42.157 140.4 42.157C137.748 42.157 136.214 41.468 136.214 40.181C136.214 38.907 137.748 38.205 140.4 38.205ZM140.4 39.479C138.723 39.479 137.956 39.687 137.956 40.181C137.956 40.688 138.723 40.896 140.4 40.896C142.064 40.896 142.831 40.688 142.831 40.181C142.831 39.687 142.064 39.479 140.4 39.479ZM155.882 31.679H157.962V33.096H155.882V31.679ZM155.882 34.292H157.962V35.709H155.882V34.292ZM154.686 30.119H156.415V37.217H154.686V30.119ZM148.381 37.711H156.415V42.157H154.686V39.089H148.381V37.711ZM150.292 30.769C152.151 30.769 153.568 32.004 153.568 33.72C153.568 35.436 152.151 36.658 150.292 36.658C148.433 36.658 147.016 35.436 147.016 33.72C147.016 32.004 148.433 30.769 150.292 30.769ZM150.292 32.238C149.382 32.238 148.706 32.771 148.706 33.72C148.706 34.669 149.382 35.215 150.292 35.215C151.202 35.215 151.878 34.669 151.878 33.72C151.878 32.771 151.202 32.238 150.292 32.238ZM161.601 32.017H162.966V33.369C162.966 36.086 161.822 38.855 159.612 39.895L158.637 38.53C160.626 37.594 161.601 35.345 161.601 33.369V32.017ZM161.965 32.017H163.33V33.369C163.33 35.189 164.266 37.321 166.242 38.231L165.293 39.596C163.083 38.569 161.965 35.93 161.965 33.369V32.017ZM159.105 31.276H165.709V32.693H159.105V31.276ZM166.593 30.119H168.335V42.157H166.593V30.119ZM167.945 34.708H170.077V36.138H167.945V34.708ZM177.179 31.549H178.583V32.212C178.583 34.357 177.491 36.255 175.216 36.931L174.371 35.592C176.321 35.007 177.179 33.616 177.179 32.212V31.549ZM177.53 31.549H178.934V32.212C178.934 33.512 179.753 34.812 181.664 35.371L180.858 36.71C178.596 36.06 177.53 34.253 177.53 32.212V31.549ZM174.8 31.068H181.313V32.472H174.8V31.068ZM177.192 36.411H178.921V38.998H177.192V36.411ZM183.419 34.864H185.538V36.307H183.419V34.864ZM182.223 30.119H183.952V42.157H182.223V30.119ZM174.527 39.869L174.319 38.478C176.386 38.478 179.207 38.491 181.599 38.153L181.729 39.414C179.22 39.882 176.542 39.882 174.527 39.869ZM192.557 32.355H195.001V33.759H192.557V32.355ZM189.164 30.743H190.581V31.874C190.581 34.253 189.528 36.32 187.24 37.113L186.33 35.748C188.345 35.085 189.164 33.499 189.164 31.874V30.743ZM189.515 30.743H190.906V31.978C190.906 33.473 191.712 34.942 193.597 35.553L192.7 36.905C190.516 36.151 189.515 34.201 189.515 31.978V30.743ZM188.28 37.828H196.483V42.157H194.754V39.193H188.28V37.828ZM194.754 30.119H196.483V37.282H194.754V30.119Z" fill="#1BC866"/>
</g>
<defs>
<filter id="filter0_dd_14_63" x="0" y="0" width="321" height="87" filterUnits="userSpaceOnUse" color-interpolation-filters="sRGB">
<feFlood flood-opacity="0" result="BackgroundImageFix"/>
<feColorMatrix in="SourceAlpha" type="matrix" values="0 0 0 0 0 0 0 0 0 0 0 0 0 0 0 0 0 0 127 0" result="hardAlpha"/>
<feOffset dy="7"/>
<feGaussianBlur stdDeviation="10.5"/>
<feComposite in2="hardAlpha" operator="out"/>
<feColorMatrix type="matrix" values="0 0 0 0 0.145098 0 0 0 0 0.172549 0 0 0 0 0.380392 0 0 0 0.2 0"/>
<feBlend mode="normal" in2="BackgroundImageFix" result="effect1_dropShadow_14_63"/>
<feColorMatrix in="SourceAlpha" type="matrix" values="0 0 0 0 0 0 0 0 0 0 0 0 0 0 0 0 0 0 127 0" result="hardAlpha"/>
<feOffset dy="3"/>
<feGaussianBlur stdDeviation="4"/>
<feComposite in2="hardAlpha" operator="out"/>
<feColorMatrix type="matrix" values="0 0 0 0 0.533333 0 0 0 0 0.564706 0 0 0 0 0.760784 0 0 0 0.25 0"/>
<feBlend mode="normal" in2="effect1_dropShadow_14_63" result="effect2_dropShadow_14_63"/>
<feBlend mode="normal" in="SourceGraphic" in2="effect2_dropShadow_14_63" result="shape"/>
</filter>
</defs>
</svg>
