<svg width="106" height="35" viewBox="0 0 106 35" fill="none" xmlns="http://www.w3.org/2000/svg">
<rect y="0.16095" width="105.787" height="34.161" rx="17.0805" fill="#58D78F"/>
<path d="M18.3942 14.5622V12.7064H26.3854V14.5622H23.5185V22.1609H21.2657V14.5622H18.3942ZM29.7831 22.2948C29.0383 22.2948 28.3981 22.1425 27.8626 21.8378C27.3302 21.53 26.9193 21.1022 26.63 20.5544C26.3438 20.0035 26.2007 19.3649 26.2007 18.6386C26.2007 17.9092 26.3438 17.2706 26.63 16.7227C26.9193 16.1718 27.3302 15.744 27.8626 15.4394C28.3981 15.1316 29.0383 14.9777 29.7831 14.9777C30.5279 14.9777 31.1665 15.1316 31.6989 15.4394C32.2344 15.744 32.6453 16.1718 32.9315 16.7227C33.2208 17.2706 33.3655 17.9092 33.3655 18.6386C33.3655 19.3649 33.2208 20.0035 32.9315 20.5544C32.6453 21.1022 32.2344 21.53 31.6989 21.8378C31.1665 22.1425 30.5279 22.2948 29.7831 22.2948ZM29.7969 20.5913C30.0678 20.5913 30.2971 20.5083 30.4848 20.3421C30.6725 20.1759 30.8156 19.945 30.9141 19.6496C31.0157 19.3541 31.0665 19.0125 31.0665 18.6247C31.0665 18.2308 31.0157 17.8861 30.9141 17.5906C30.8156 17.2952 30.6725 17.0644 30.4848 16.8982C30.2971 16.732 30.0678 16.6489 29.7969 16.6489C29.5169 16.6489 29.2799 16.732 29.086 16.8982C28.8952 17.0644 28.749 17.2952 28.6474 17.5906C28.5489 17.8861 28.4997 18.2308 28.4997 18.6247C28.4997 19.0125 28.5489 19.3541 28.6474 19.6496C28.749 19.945 28.8952 20.1759 29.086 20.3421C29.2799 20.5083 29.5169 20.5913 29.7969 20.5913ZM35.7914 22.2948C35.459 22.2948 35.1744 22.1779 34.9374 21.944C34.7035 21.7101 34.5881 21.4269 34.5911 21.0945C34.5881 20.7683 34.7035 20.4898 34.9374 20.259C35.1744 20.0251 35.459 19.9081 35.7914 19.9081C36.1054 19.9081 36.3823 20.0251 36.6224 20.259C36.8655 20.4898 36.9886 20.7683 36.9917 21.0945C36.9886 21.3161 36.9302 21.5177 36.8163 21.6993C36.7055 21.8809 36.5593 22.0255 36.3777 22.1333C36.1992 22.241 36.0038 22.2948 35.7914 22.2948ZM48.7776 11.2799H50.5196V23.3179H48.7776V11.2799ZM45.2286 12.5279H46.9446C46.9446 16.2069 45.6966 19.2229 41.4196 21.2899L40.5226 19.9119C43.9806 18.2479 45.2286 16.0639 45.2286 12.8399V12.5279ZM41.1596 12.5279H46.0476V13.8929H41.1596V12.5279ZM55.1466 12.2029H56.5506V13.9579C56.5506 16.9349 55.5106 19.7299 53.2356 20.8479L52.1956 19.4569C54.2236 18.5079 55.1466 16.1939 55.1466 13.9579V12.2029ZM55.4976 12.2029H56.8756V13.9579C56.8756 16.1159 57.7336 18.3129 59.6576 19.2489L58.6176 20.6269C56.4466 19.5219 55.4976 16.8439 55.4976 13.9579V12.2029ZM60.1386 11.2799H61.8806V23.3179H60.1386V11.2799ZM61.4906 15.9079H63.6226V17.3509H61.4906V15.9079ZM72.6695 11.2799H74.4115V18.0269H72.6695V11.2799ZM65.0905 11.9689H66.8065V16.9349H65.0905V11.9689ZM65.0905 16.0249H66.1305C68.2235 16.0249 69.9265 15.9079 71.6945 15.5309L71.9025 16.9219C70.0695 17.3249 68.2885 17.4549 66.1305 17.4549H65.0905V16.0249ZM66.4035 18.5339H74.4115V23.1879H66.4035V18.5339ZM72.7085 19.8859H68.0935V21.8229H72.7085V19.8859ZM77.8295 12.6449H79.2855C79.2855 15.6999 78.9995 18.3909 77.5045 20.7829L76.1785 20.0679C77.5825 17.8579 77.8295 15.7649 77.8295 12.7879V12.6449ZM76.5685 12.6449H78.7525V14.0359H76.5685V12.6449ZM80.5205 12.6449H81.9765C81.9765 15.7909 81.7945 18.7939 80.1825 21.3679L78.8565 20.6399C80.3905 18.2479 80.5205 15.8039 80.5205 12.8009V12.6449ZM79.6495 12.6449H81.4955V14.0359H79.6495V12.6449ZM85.1615 11.2799H86.8125V23.3179H85.1615V11.2799ZM81.3915 15.7909H83.0945V17.1819H81.3915V15.7909ZM82.8345 11.5399H84.4465V22.7849H82.8345V11.5399Z" fill="white"/>
</svg>
