<svg width="250" height="53" viewBox="0 0 250 53" fill="none" xmlns="http://www.w3.org/2000/svg">
<path d="M15.44 0.887999H18.608V23.184H15.44V0.887999ZM10.4 8.712H16.352V11.28H10.4V8.712ZM0.776 2.64H3.944V8.016H8.312V2.64H11.456V17.952H0.776V2.64ZM3.944 10.488V15.384H8.312V10.488H3.944ZM30.2941 2.184H33.0781V3.792C33.0781 8.616 29.6461 12.888 23.8861 14.016L22.5181 11.376C27.5341 10.512 30.2941 6.984 30.2941 3.792V2.184ZM30.9421 2.184H33.7021V3.792C33.7021 7.056 36.4381 10.512 41.4781 11.376L40.1101 14.016C34.3501 12.888 30.9421 8.688 30.9421 3.792V2.184ZM22.0621 17.832H42.1741V20.424H22.0621V17.832ZM59.4283 0.912H62.6443V23.136H59.4283V0.912ZM52.8763 3.216H56.0443C56.0443 10.008 53.7403 15.576 45.8443 19.392L44.1883 16.848C50.5723 13.776 52.8763 9.744 52.8763 3.792V3.216ZM45.3643 3.216H54.3883V5.736H45.3643V3.216ZM71.1864 2.616H73.7784V5.856C73.7784 11.352 71.8584 16.512 67.6584 18.576L65.7384 16.008C69.4824 14.256 71.1864 9.984 71.1864 5.856V2.616ZM71.8344 2.616H74.3784V5.856C74.3784 9.84 75.9624 13.896 79.5144 15.624L77.5944 18.168C73.5864 16.128 71.8344 11.184 71.8344 5.856V2.616ZM80.4024 0.912H83.6184V23.136H80.4024V0.912ZM82.8984 9.456H86.8344V12.12H82.8984V9.456ZM103.537 0.912H106.753V13.368H103.537V0.912ZM89.5445 2.184H92.7125V11.352H89.5445V2.184ZM89.5445 9.672H91.4645C95.3285 9.672 98.4725 9.456 101.737 8.76L102.121 11.328C98.7365 12.072 95.4485 12.312 91.4645 12.312H89.5445V9.672ZM91.9685 14.304H106.753V22.896H91.9685V14.304ZM103.609 16.8H95.0885V20.376H103.609V16.8ZM113.063 3.432H115.751C115.751 9.072 115.223 14.04 112.463 18.456L110.015 17.136C112.607 13.056 113.063 9.192 113.063 3.696V3.432ZM110.735 3.432H114.767V6H110.735V3.432ZM118.031 3.432H120.719C120.719 9.24 120.383 14.784 117.407 19.536L114.959 18.192C117.791 13.776 118.031 9.264 118.031 3.72V3.432ZM116.423 3.432H119.831V6H116.423V3.432ZM126.599 0.912H129.647V23.136H126.599V0.912ZM119.639 9.24H122.783V11.808H119.639V9.24ZM122.303 1.392H125.279V22.152H122.303V1.392ZM151.889 0.912H155.081V13.44H151.889V0.912ZM154.217 5.592H158.033V8.184H154.217V5.592ZM140.609 14.448H155.081V22.896H140.609V14.448ZM151.961 16.944H143.753V20.376H151.961V16.944ZM138.473 1.968H141.665V11.064H138.473V1.968ZM138.473 9.696H140.345C143.369 9.696 146.657 9.48 150.161 8.808L150.521 11.376C146.897 12.12 143.489 12.312 140.345 12.312H138.473V9.696ZM174.927 0.912H178.143V12.072H174.927V0.912ZM167.943 1.728H171.447C171.447 7.824 168.111 11.112 161.103 12.528L159.999 9.96C165.927 8.904 167.943 6.504 167.943 3.552V1.728ZM161.175 1.728H170.199V4.272H161.175V1.728ZM163.311 12.984H178.143V19.008H166.551V21.432H163.359V16.728H174.927V15.432H163.311V12.984ZM163.359 20.448H178.695V22.92H163.359V20.448ZM202.882 0.912H205.93V23.136H202.882V0.912ZM199.978 9.48H203.674V12.024H199.978V9.48ZM197.914 1.296H200.89V22.08H197.914V1.296ZM187.762 3.36H190.954V16.2H187.762V3.36ZM187.762 15H189.298C191.434 15 193.93 14.88 196.69 14.352L197.002 17.088C194.098 17.616 191.554 17.736 189.298 17.736H187.762V15ZM213.488 8.352H216.68V12.432H213.488V8.352ZM221.312 8.352H224.48V12.432H221.312V8.352ZM208.976 11.448H229.064V13.968H208.976V11.448ZM218.984 15.096C223.784 15.096 226.688 16.536 226.688 19.104C226.688 21.696 223.784 23.136 218.984 23.136C214.16 23.136 211.256 21.696 211.256 19.104C211.256 16.536 214.16 15.096 218.984 15.096ZM218.984 17.496C216.008 17.496 214.496 18 214.496 19.104C214.496 20.232 216.008 20.736 218.984 20.736C221.96 20.736 223.472 20.232 223.472 19.104C223.472 18 221.96 17.496 218.984 17.496ZM219.032 1.224C223.928 1.224 227.072 2.856 227.072 5.52C227.072 8.16 223.928 9.744 219.032 9.744C214.112 9.744 210.992 8.16 210.992 5.52C210.992 2.856 214.112 1.224 219.032 1.224ZM219.032 3.672C215.984 3.672 214.28 4.272 214.28 5.52C214.28 6.744 215.984 7.344 219.032 7.344C222.08 7.344 223.784 6.744 223.784 5.52C223.784 4.272 222.08 3.672 219.032 3.672ZM246.294 0.887999H249.51V23.184H246.294V0.887999ZM237.534 2.448C240.894 2.448 243.366 5.52 243.366 10.368C243.366 15.264 240.894 18.336 237.534 18.336C234.174 18.336 231.702 15.264 231.702 10.368C231.702 5.52 234.174 2.448 237.534 2.448ZM237.534 5.352C235.878 5.352 234.75 7.104 234.75 10.368C234.75 13.68 235.878 15.456 237.534 15.456C239.19 15.456 240.294 13.68 240.294 10.368C240.294 7.104 239.19 5.352 237.534 5.352ZM4.952 43.4H7.352V44.144C7.352 47.504 5.864 50.576 2.384 51.824L0.824 49.496C3.728 48.512 4.952 46.304 4.952 44.144V43.4ZM5.768 43.4H8.048V44.144C8.048 46.304 9.128 48.56 11.84 49.688L10.568 52.04C7.04 50.72 5.768 47.408 5.768 44.144V43.4ZM13.064 43.4H15.344V44.144C15.344 47.216 14.024 50.672 10.568 52.04L9.248 49.688C11.96 48.464 13.064 46.112 13.064 44.144V43.4ZM13.808 43.4H16.208V44.144C16.208 46.448 17.408 48.584 20.336 49.496L18.776 51.824C15.248 50.624 13.808 47.648 13.808 44.144V43.4ZM15.224 29.936H18.44V42.488H15.224V29.936ZM6.344 31.064C9.8 31.064 12.368 33.272 12.368 36.392C12.368 39.488 9.8 41.696 6.344 41.696C2.888 41.696 0.296 39.488 0.296 36.392C0.296 33.272 2.888 31.064 6.344 31.064ZM6.344 33.704C4.664 33.704 3.416 34.688 3.416 36.392C3.416 38.072 4.664 39.056 6.344 39.056C8.024 39.056 9.248 38.072 9.248 36.392C9.248 34.688 8.024 33.704 6.344 33.704ZM38.6221 38.312H42.5341V40.928H38.6221V38.312ZM36.2461 29.888H39.4621V52.112H36.2461V29.888ZM22.7101 32.024H25.9021V45.824H22.7101V32.024ZM22.7101 44.048H24.6301C27.7981 44.048 31.2301 43.832 34.8061 43.112L35.1421 45.728C31.4701 46.496 27.8941 46.688 24.6301 46.688H22.7101V44.048ZM48.5563 41.192H51.7243V47.432H48.5563V41.192ZM56.6203 41.192H59.8123V47.432H56.6203V41.192ZM44.1403 46.976H64.2523V49.568H44.1403V46.976ZM54.1723 30.992C58.9483 30.992 62.4763 33.344 62.4763 36.968C62.4763 40.592 58.9483 42.92 54.1723 42.92C49.3723 42.92 45.8683 40.592 45.8683 36.968C45.8683 33.344 49.3723 30.992 54.1723 30.992ZM54.1723 33.488C51.0763 33.488 49.0123 34.76 49.0123 36.968C49.0123 39.152 51.0763 40.448 54.1723 40.448C57.2682 40.448 59.3323 39.152 59.3323 36.968C59.3323 34.76 57.2682 33.488 54.1723 33.488ZM69.8366 44.6562V44.3068C69.8366 43.3409 69.9162 42.571 70.0753 41.9972C70.2401 41.4233 70.4787 40.9631 70.7912 40.6165C71.1037 40.2642 71.4844 39.9432 71.9332 39.6534C72.2912 39.4261 72.6094 39.196 72.8878 38.9631C73.1719 38.7244 73.3963 38.4687 73.5611 38.196C73.7259 37.9233 73.8082 37.6136 73.8082 37.267C73.8082 36.9318 73.7287 36.6364 73.5696 36.3807C73.4105 36.125 73.1918 35.929 72.9134 35.7926C72.6406 35.6506 72.3366 35.5795 72.0014 35.5795C71.6662 35.5795 71.3509 35.6562 71.0554 35.8097C70.7656 35.9631 70.527 36.1818 70.3395 36.4659C70.1577 36.7443 70.0639 37.0824 70.0582 37.4801H66.1378C66.1548 36.2869 66.4304 35.3097 66.9645 34.5483C67.5043 33.7869 68.2173 33.2244 69.1037 32.8608C69.9901 32.4915 70.9673 32.3068 72.0355 32.3068C73.206 32.3068 74.2457 32.4886 75.1548 32.8523C76.0696 33.2159 76.7884 33.7528 77.3111 34.4631C77.8338 35.1733 78.0952 36.0426 78.0952 37.071C78.0952 37.7472 77.9815 38.3437 77.7543 38.8608C77.527 39.3778 77.2088 39.8352 76.7997 40.233C76.3963 40.625 75.9219 40.983 75.3764 41.3068C74.9503 41.5568 74.5952 41.8182 74.3111 42.0909C74.0327 42.3636 73.8224 42.6761 73.6804 43.0284C73.5384 43.375 73.4673 43.8011 73.4673 44.3068V44.6562H69.8366ZM71.7202 50.2472C71.1065 50.2472 70.581 50.0312 70.1435 49.5994C69.7116 49.1676 69.4986 48.6449 69.5043 48.0312C69.4986 47.429 69.7116 46.9148 70.1435 46.4886C70.581 46.0568 71.1065 45.8409 71.7202 45.8409C72.3054 45.8409 72.8196 46.0568 73.2628 46.4886C73.706 46.9148 73.9304 47.429 73.9361 48.0312C73.9304 48.4403 73.8224 48.8125 73.6122 49.1477C73.4077 49.483 73.1378 49.75 72.8026 49.9489C72.473 50.1477 72.1122 50.2472 71.7202 50.2472Z" fill="black"/>
</svg>
