<svg width="54" height="19" viewBox="0 0 54 19" fill="none" xmlns="http://www.w3.org/2000/svg">
<path d="M7.72234 0.559999H10.0023V1.12C10.0023 4.42 7.26234 7.12 2.50234 7.78L1.52234 5.7C5.68234 5.2 7.72234 3.06 7.72234 1.12V0.559999ZM8.16234 0.559999H10.4423V1.12C10.4423 3.06 12.4823 5.2 16.6223 5.7L15.6623 7.78C10.9023 7.12 8.16234 4.4 8.16234 1.12V0.559999ZM0.702344 8.76H17.4423V10.86H0.702344V8.76ZM9.04234 12.08C13.0423 12.08 15.4623 13.3 15.4623 15.44C15.4623 17.6 13.0423 18.8 9.04234 18.8C5.02234 18.8 2.60234 17.6 2.60234 15.44C2.60234 13.3 5.02234 12.08 9.04234 12.08ZM9.04234 14.08C6.56234 14.08 5.30234 14.52 5.30234 15.44C5.30234 16.38 6.56234 16.8 9.04234 16.8C11.5223 16.8 12.7823 16.38 12.7823 15.44C12.7823 14.52 11.5223 14.08 9.04234 14.08ZM23.1608 5.06H25.2208V6.02C25.2208 9.92 23.5608 13.86 20.2008 15.36L18.7608 13.32C21.7808 11.94 23.1608 8.8 23.1608 6.02V5.06ZM23.7408 5.06H25.8008V6.02C25.8008 8.66 27.1008 11.62 30.0008 13.02L28.5808 15.04C25.3208 13.54 23.7408 9.74 23.7408 6.02V5.06ZM19.4008 3.28H29.4808V5.38H19.4008V3.28ZM23.1408 0.679999H25.8008V4.36H23.1408V0.679999ZM30.9408 0.26H33.6208V18.78H30.9408V0.26ZM33.0208 7.44H36.3008V9.64H33.0208V7.44ZM50.7592 0.279999H53.2792V9.8H50.7592V0.279999ZM47.0192 0.599999H49.4992V9.72H47.0192V0.599999ZM44.7992 4.14H47.7592V6.24H44.7992V4.14ZM40.6992 10.54H53.2792V15.52H43.3992V17.76H40.7192V13.6H50.6392V12.58H40.6992V10.54ZM40.7192 16.62H53.8792V18.66H40.7192V16.62ZM38.1392 1.28H40.6392V3.28H42.9992V1.28H45.4792V9.22H38.1392V1.28ZM40.6392 5.24V7.2H42.9992V5.24H40.6392Z" fill="black"/>
</svg>
